<svg xmlns="http://www.w3.org/2000/svg" width="163.32" height="54.113" viewBox="0 0 163.32 54.113">
  <g id="アートワーク_7" data-name="アートワーク 7" transform="translate(81.66 27.057)">
    <g id="Group_23067" data-name="Group 23067" transform="translate(-81.66 -27.057)">
      <g id="Group_23065" data-name="Group 23065" transform="translate(62.042)">
        <g id="Group_23064" data-name="Group 23064">
          <path id="Path_33558" data-name="Path 33558" d="M105.857,15.53a5.575,5.575,0,0,1-.647,2.746,5.777,5.777,0,0,1-1.7,1.926,7.609,7.609,0,0,1-2.447,1.137,10.9,10.9,0,0,1-2.872.378,20.449,20.449,0,0,1-2.888-.2A13.493,13.493,0,0,1,92.5,20.8l.156-2.936a8.99,8.99,0,0,0,2.573.979A13.3,13.3,0,0,0,98,19.128a7.014,7.014,0,0,0,1.642-.189,3.976,3.976,0,0,0,1.389-.616,3.2,3.2,0,0,0,.963-1.089,3.306,3.306,0,0,0,.363-1.61,2.16,2.16,0,0,0-.332-1.184,3.759,3.759,0,0,0-.883-.947,9.373,9.373,0,0,0-1.216-.789q-.663-.363-1.326-.679l-2.146-1.073a13.442,13.442,0,0,1-1.594-.9,6.608,6.608,0,0,1-1.294-1.1,4.678,4.678,0,0,1-.868-1.405,4.8,4.8,0,0,1-.316-1.8,4.793,4.793,0,0,1,.7-2.636,5.709,5.709,0,0,1,1.8-1.784A8.019,8.019,0,0,1,97.334.315,11.961,11.961,0,0,1,100.049,0a17.967,17.967,0,0,1,2.383.158,14.475,14.475,0,0,1,2.32.505l-.19,2.778a7.791,7.791,0,0,0-2.154-.664,14.1,14.1,0,0,0-2.249-.189,8.508,8.508,0,0,0-1.537.142,4.662,4.662,0,0,0-1.41.489,2.992,2.992,0,0,0-1.03.915,2.484,2.484,0,0,0-.4,1.452,1.952,1.952,0,0,0,.285,1.058,3.558,3.558,0,0,0,.728.836,5.216,5.216,0,0,0,1.029.679q.585.3,1.156.584l2.249,1.073a19.482,19.482,0,0,1,1.789.947,6.828,6.828,0,0,1,1.472,1.184,4.975,4.975,0,0,1,1.361,3.582Z" transform="translate(-92.378 0)" fill="#142a4d"/>
          <path id="Path_33559" data-name="Path 33559" d="M136.725,21.523,134.706,16h-9.754l-2.083,5.525h-3.346L127.729.469h4.325l8.27,21.054ZM129.844,2.931,125.8,13.506h8.049Z" transform="translate(-101.292 -0.154)" fill="#142a4d"/>
          <path id="Path_33560" data-name="Path 33560" d="M161.772,21.523V.469h3.409V18.682h8.743v2.841Z" transform="translate(-115.166 -0.154)" fill="#142a4d"/>
          <path id="Path_33561" data-name="Path 33561" d="M191.992,21.523V.469h12.121V3.027H195.4v6.5h8.3v2.494h-8.3v6.944h9.028v2.558Z" transform="translate(-125.09 -0.154)" fill="#142a4d"/>
          <path id="Path_33562" data-name="Path 33562" d="M236.586,15.53a5.568,5.568,0,0,1-.647,2.746,5.777,5.777,0,0,1-1.7,1.926,7.6,7.6,0,0,1-2.447,1.137,10.9,10.9,0,0,1-2.873.378,20.456,20.456,0,0,1-2.888-.2,13.515,13.515,0,0,1-2.794-.711l.156-2.936a8.989,8.989,0,0,0,2.573.979,13.3,13.3,0,0,0,2.762.284,7.01,7.01,0,0,0,1.642-.189,3.971,3.971,0,0,0,1.389-.616,3.2,3.2,0,0,0,.963-1.089,3.306,3.306,0,0,0,.363-1.61,2.155,2.155,0,0,0-.332-1.184,3.746,3.746,0,0,0-.883-.947,9.362,9.362,0,0,0-1.215-.789q-.663-.363-1.326-.679l-2.146-1.073a13.442,13.442,0,0,1-1.594-.9,6.627,6.627,0,0,1-1.294-1.1,4.677,4.677,0,0,1-.868-1.405,4.8,4.8,0,0,1-.316-1.8,4.8,4.8,0,0,1,.7-2.636,5.708,5.708,0,0,1,1.8-1.784,8.02,8.02,0,0,1,2.462-1.01A11.961,11.961,0,0,1,230.777,0a17.967,17.967,0,0,1,2.383.158,14.46,14.46,0,0,1,2.32.505l-.189,2.778a7.8,7.8,0,0,0-2.155-.664,14.1,14.1,0,0,0-2.249-.189,8.52,8.52,0,0,0-1.537.142,4.675,4.675,0,0,0-1.41.489,2.984,2.984,0,0,0-1.029.915,2.479,2.479,0,0,0-.4,1.452,1.952,1.952,0,0,0,.285,1.058,3.588,3.588,0,0,0,.728.836,5.2,5.2,0,0,0,1.03.679q.585.3,1.155.584l2.249,1.073a19.489,19.489,0,0,1,1.789.947,6.814,6.814,0,0,1,1.472,1.184,4.975,4.975,0,0,1,1.361,3.582Z" transform="translate(-135.308 0)" fill="#142a4d"/>
          <path id="Path_33563" data-name="Path 33563" d="M105.856,63.768a5.572,5.572,0,0,1-.647,2.746,5.777,5.777,0,0,1-1.7,1.926,7.572,7.572,0,0,1-2.447,1.136,10.836,10.836,0,0,1-2.872.379,20.441,20.441,0,0,1-2.888-.2,13.451,13.451,0,0,1-2.794-.711L92.66,66.1a9.012,9.012,0,0,0,2.572.979A13.352,13.352,0,0,0,98,67.366a6.969,6.969,0,0,0,1.641-.19,3.957,3.957,0,0,0,1.389-.615,3.189,3.189,0,0,0,.963-1.089,3.305,3.305,0,0,0,.364-1.611,2.155,2.155,0,0,0-.332-1.183,3.733,3.733,0,0,0-.883-.946,9.319,9.319,0,0,0-1.215-.789q-.663-.363-1.326-.679L96.45,59.191a13.346,13.346,0,0,1-1.594-.9,6.562,6.562,0,0,1-1.294-1.1,4.683,4.683,0,0,1-.868-1.4,5.32,5.32,0,0,1,.379-4.435,5.686,5.686,0,0,1,1.8-1.783,7.973,7.973,0,0,1,2.461-1.01,11.968,11.968,0,0,1,2.715-.316,18.08,18.08,0,0,1,2.382.158,14.46,14.46,0,0,1,2.32.505l-.189,2.777a7.817,7.817,0,0,0-2.155-.663,14.172,14.172,0,0,0-2.249-.189,8.577,8.577,0,0,0-1.537.141,4.684,4.684,0,0,0-1.41.49,3,3,0,0,0-1.03.915,2.485,2.485,0,0,0-.4,1.452,1.95,1.95,0,0,0,.285,1.057,3.606,3.606,0,0,0,.728.837,5.332,5.332,0,0,0,1.03.679q.585.3,1.155.583l2.249,1.073a19.484,19.484,0,0,1,1.789.947,6.85,6.85,0,0,1,1.472,1.183,4.981,4.981,0,0,1,1.361,3.583Z" transform="translate(-92.378 -15.841)" fill="#142a4d"/>
          <path id="Path_33564" data-name="Path 33564" d="M136.1,69.039a9.235,9.235,0,0,1-2.51.711,18.342,18.342,0,0,1-2.635.2,13.386,13.386,0,0,1-4.576-.741,9.44,9.44,0,0,1-5.761-5.571,12.2,12.2,0,0,1-.8-4.545,11.33,11.33,0,0,1,.836-4.4,10.177,10.177,0,0,1,2.32-3.44,10.4,10.4,0,0,1,3.519-2.225,12.261,12.261,0,0,1,4.466-.79,19.144,19.144,0,0,1,2.589.19,11.733,11.733,0,0,1,2.493.6l-.19,2.778a9.391,9.391,0,0,0-2.193-.664,13,13,0,0,0-2.32-.22,8.533,8.533,0,0,0-3.329.615,7.031,7.031,0,0,0-2.478,1.7,7.641,7.641,0,0,0-1.563,2.588,9.389,9.389,0,0,0-.552,3.267,10.113,10.113,0,0,0,.521,3.33A7.1,7.1,0,0,0,125.46,65a6.982,6.982,0,0,0,2.462,1.672,8.7,8.7,0,0,0,3.345.6,13.968,13.968,0,0,0,2.383-.2,8.831,8.831,0,0,0,2.257-.711Z" transform="translate(-101.386 -15.841)" fill="#142a4d"/>
          <path id="Path_33565" data-name="Path 33565" d="M173.011,59.1a14,14,0,0,1-.631,4.277,10.085,10.085,0,0,1-1.862,3.44,8.572,8.572,0,0,1-3.078,2.3,10.284,10.284,0,0,1-4.276.836,10.524,10.524,0,0,1-4.309-.821,8.488,8.488,0,0,1-3.078-2.272,9.691,9.691,0,0,1-1.846-3.44,14.566,14.566,0,0,1-.615-4.325,13.828,13.828,0,0,1,.631-4.246,9.911,9.911,0,0,1,1.878-3.441,8.9,8.9,0,0,1,3.078-2.319,10,10,0,0,1,4.261-.853,10.522,10.522,0,0,1,4.308.821,8.488,8.488,0,0,1,3.077,2.273,9.665,9.665,0,0,1,1.846,3.44A14.538,14.538,0,0,1,173.011,59.1Zm-3.6,0a13.36,13.36,0,0,0-.331-2.952,8.453,8.453,0,0,0-1.073-2.651,6.013,6.013,0,0,0-1.926-1.926,5.4,5.4,0,0,0-2.919-.741,5.248,5.248,0,0,0-2.889.757,6.158,6.158,0,0,0-1.925,1.942,8.745,8.745,0,0,0-1.089,2.651,12.474,12.474,0,0,0,0,5.84,8.525,8.525,0,0,0,1.105,2.652,6.334,6.334,0,0,0,1.941,1.941,5.188,5.188,0,0,0,2.857.758,5.4,5.4,0,0,0,2.919-.741,6.019,6.019,0,0,0,1.926-1.926,8.474,8.474,0,0,0,1.073-2.652A13.348,13.348,0,0,0,169.412,59.1Z" transform="translate(-112.389 -15.841)" fill="#142a4d"/>
          <path id="Path_33566" data-name="Path 33566" d="M202.912,69.761l-2.588-6.533a11.883,11.883,0,0,0-.614-1.326,2.869,2.869,0,0,0-.69-.852,2.318,2.318,0,0,0-.988-.442,7.328,7.328,0,0,0-1.475-.126h-1.694v9.28h-3.409V48.709h7.008a10.749,10.749,0,0,1,2.556.3,6.583,6.583,0,0,1,2.179.948,4.772,4.772,0,0,1,1.515,1.707,5.392,5.392,0,0,1,.568,2.577,4.558,4.558,0,0,1-1.42,3.382,5.7,5.7,0,0,1-1.546,1.043,7.035,7.035,0,0,1-1.862.569,3.459,3.459,0,0,1,1.956.977,6.257,6.257,0,0,1,1.136,1.891l3.125,7.659ZM201.776,54.5a3.285,3.285,0,0,0-.377-1.664,2.737,2.737,0,0,0-1.005-1.015,4.163,4.163,0,0,0-1.477-.492,12.1,12.1,0,0,0-1.791-.127h-2.262v6.787H197a9.5,9.5,0,0,0,1.712-.158,4.465,4.465,0,0,0,1.54-.572,3.372,3.372,0,0,0,1.1-1.078A3.072,3.072,0,0,0,201.776,54.5Z" transform="translate(-124.913 -15.995)" fill="#142a4d"/>
          <path id="Path_33567" data-name="Path 33567" d="M223.827,69.761V48.709h12.121v2.556h-8.712v6.5h8.3v2.494h-8.3v6.944h9.027v2.556Z" transform="translate(-135.544 -15.995)" fill="#142a4d"/>
        </g>
      </g>
      <g id="Group_23066" data-name="Group 23066" transform="translate(0 0.345)">
        <path id="Path_33568" data-name="Path 33568" d="M28.78,55.861l.011.032h.147l-.011-.033Z" transform="translate(-9.451 -18.688)" fill="none"/>
        <path id="Path_33569" data-name="Path 33569" d="M29.262,55.839l-.1.033H42.479L42.5,55.8Z" transform="translate(-9.578 -18.668)" fill="none"/>
        <path id="Path_33570" data-name="Path 33570" d="M25.724,46.485l1.725,5.291h.123Z" transform="translate(-8.447 -15.609)" fill="none"/>
        <path id="Path_33571" data-name="Path 33571" d="M54.284,7.124,40.152,17.544,65.259,36.137A26.516,26.516,0,0,0,54.333,7.084l-.051.037Z" transform="translate(-13.185 -2.671)" fill="#1788dd"/>
        <path id="Path_33572" data-name="Path 33572" d="M61.2,7.041c-.046-.031-.1-.057-.143-.088l.092.125Z" transform="translate(-20.049 -2.628)" fill="#e73e8f"/>
        <path id="Path_33573" data-name="Path 33573" d="M44.953,4.359A26.442,26.442,0,0,0,14.4,6.551l5.646,16.171Z" transform="translate(-4.729 -0.513)" fill="#e73e8f"/>
        <path id="Path_33574" data-name="Path 33574" d="M42.69,65.4a26.518,26.518,0,0,0,23.1-18.416L52.271,36.961Z" transform="translate(-14.019 -12.482)" fill="#e3e100"/>
        <path id="Path_33575" data-name="Path 33575" d="M3.369,55.931A26.5,26.5,0,0,0,27.608,71.708q.544,0,1.083-.023L34.007,55.91Z" transform="translate(-1.106 -18.705)" fill="#00aa9f"/>
        <path id="Path_33576" data-name="Path 33576" d="M8.853,10.557A26.477,26.477,0,0,0,1.847,40.031L19,39.978Z" transform="translate(0 -3.811)" fill="#0000d4"/>
        <path id="Path_33577" data-name="Path 33577" d="M29,55.86l.011.033h.1l.1-.033Z" transform="translate(-9.522 -18.688)" fill="#fff"/>
        <path id="Path_33578" data-name="Path 33578" d="M29.026,55.941l.091-.032h-.1Z" transform="translate(-9.528 -18.704)" fill="#fff"/>
        <path id="Path_33579" data-name="Path 33579" d="M52.232,36.946,42.614,65.4l.051,0,9.581-28.435Z" transform="translate(-13.994 -12.477)" fill="#fff"/>
        <path id="Path_33580" data-name="Path 33580" d="M3.354,55.91l.01.021,6.75-.021Z" transform="translate(-1.101 -18.705)" fill="#fff"/>
        <path id="Path_33581" data-name="Path 33581" d="M56.949,36.859l.069-.2L57,36.65l-.067.2Z" transform="translate(-18.697 -12.38)" fill="#fff"/>
      </g>
    </g>
  </g>
</svg>
