<svg xmlns="http://www.w3.org/2000/svg" xmlns:xlink="http://www.w3.org/1999/xlink" width="122.091" height="137.403" viewBox="0 0 122.091 137.403">
  <defs>
    <linearGradient id="linear-gradient" y1="0.5" x2="1" y2="0.5" gradientUnits="objectBoundingBox">
      <stop offset="0" stop-color="#1788dd"/>
      <stop offset="1" stop-color="#2c9dbc"/>
    </linearGradient>
    <linearGradient id="linear-gradient-3" y1="0.5" x2="1" y2="0.5" gradientUnits="objectBoundingBox">
      <stop offset="0" stop-color="#3060ab"/>
      <stop offset="1" stop-color="#131e60"/>
    </linearGradient>
    <linearGradient id="linear-gradient-4" y1="0.5" x2="1" y2="0.5" gradientUnits="objectBoundingBox">
      <stop offset="0" stop-color="#ffd9d9"/>
      <stop offset="1" stop-color="#efb4b4"/>
    </linearGradient>
    <linearGradient id="linear-gradient-5" x1="-97.583" y1="6.197" x2="-98.642" y2="6.133" xlink:href="#linear-gradient-4"/>
  </defs>
  <g id="アートワーク_8" data-name="アートワーク 8" transform="translate(61.046 68.701)">
    <g id="Group_46523" data-name="Group 46523" transform="translate(-61.046 -68.701)">
      <g id="Group_46520" data-name="Group 46520">
        <g id="Group_46490" data-name="Group 46490" transform="translate(0 11.255)">
          <path id="Path_98412" data-name="Path 98412" d="M455.216,475.825l-62.991,29.585a2.438,2.438,0,0,1-3.474-2.207V465.141a5.92,5.92,0,0,1,3.4-5.358l62.955-29.568a2.292,2.292,0,0,1,3.266,2.074v38.561A5.5,5.5,0,0,1,455.216,475.825Z" transform="translate(-388.751 -429.995)" fill="#1788dd"/>
          <path id="Path_98413" data-name="Path 98413" d="M463.5,567.3s-10.3,18.236-19.951,7.592c-6.959-7.678-12.044-6.733-17.706-3.07-6.3,4.077-8.451,13.491-17.124,6.671s-7.932,1.853-7.932,1.853" transform="translate(-398.188 -537.759)" fill="none" stroke="#fbfbfb" stroke-width="0.861"/>
          <g id="Group_46488" data-name="Group 46488" transform="translate(45.312 9.282)">
            <path id="Path_98414" data-name="Path 98414" d="M647.012,478.244l8.162-3.827a1.1,1.1,0,0,0,.61-.893h0c0-.335-.274-.483-.61-.327l-8.162,3.827a1.1,1.1,0,0,0-.61.893h0C646.4,478.252,646.677,478.4,647.012,478.244Z" transform="translate(-636.274 -473.134)" fill="#fdfdfd" opacity="0.69"/>
            <path id="Path_98415" data-name="Path 98415" d="M647.012,529.812l8.162-3.827a1.1,1.1,0,0,0,.61-.893h0c0-.335-.274-.483-.61-.327l-8.162,3.827a1.1,1.1,0,0,0-.61.892h0C646.4,529.82,646.677,529.968,647.012,529.812Z" transform="translate(-636.274 -513.607)" fill="#fdfdfd" opacity="0.69"/>
            <path id="Path_98416" data-name="Path 98416" d="M599.942,500.94l18.291-8.449a1.1,1.1,0,0,0,.61-.893h0c0-.335-.274-.483-.61-.327l-18.291,8.449a1.1,1.1,0,0,0-.61.893h0C599.332,500.948,599.606,501.1,599.942,500.94Z" transform="translate(-599.332 -487.32)" fill="#fdfdfd" opacity="0.69"/>
            <path id="Path_98417" data-name="Path 98417" d="M599.942,519.015l18.291-8.449a1.1,1.1,0,0,0,.61-.893h0c0-.336-.274-.483-.61-.327l-18.291,8.449a1.1,1.1,0,0,0-.61.893h0C599.332,519.023,599.606,519.17,599.942,519.015Z" transform="translate(-599.332 -501.506)" fill="#fdfdfd" opacity="0.69"/>
          </g>
          <g id="Group_46489" data-name="Group 46489" transform="translate(4.043 49.526)">
            <path id="Path_98418" data-name="Path 98418" d="M455.221,665.272l8.162-3.827a1.1,1.1,0,0,0,.61-.893h0c0-.335-.274-.483-.61-.327l-8.162,3.827a1.1,1.1,0,0,0-.61.893h0C454.611,665.28,454.886,665.428,455.221,665.272Z" transform="translate(-444.483 -660.163)" fill="#fdfdfd" opacity="0.69"/>
            <path id="Path_98419" data-name="Path 98419" d="M455.221,716.841l8.162-3.827a1.1,1.1,0,0,0,.61-.893h0c0-.335-.274-.483-.61-.327l-8.162,3.827a1.1,1.1,0,0,0-.61.893h0C454.611,716.849,454.886,717,455.221,716.841Z" transform="translate(-444.483 -700.635)" fill="#fdfdfd" opacity="0.69"/>
            <path id="Path_98420" data-name="Path 98420" d="M408.151,687.969l18.291-8.449a1.1,1.1,0,0,0,.61-.893h0c0-.336-.274-.483-.61-.327l-18.291,8.449a1.1,1.1,0,0,0-.61.893h0C407.541,687.977,407.815,688.124,408.151,687.969Z" transform="translate(-407.541 -674.348)" fill="#fdfdfd" opacity="0.69"/>
            <path id="Path_98421" data-name="Path 98421" d="M408.151,706.043l18.291-8.449a1.1,1.1,0,0,0,.61-.893h0c0-.335-.274-.483-.61-.327l-18.291,8.449a1.1,1.1,0,0,0-.61.893h0C407.541,706.052,407.815,706.2,408.151,706.043Z" transform="translate(-407.541 -688.534)" fill="#fdfdfd" opacity="0.69"/>
          </g>
        </g>
        <g id="Group_46510" data-name="Group 46510" transform="translate(1.815 61.754)">
          <path id="Path_98422" data-name="Path 98422" d="M463.652,710.515,400.661,740.1a2.438,2.438,0,0,1-3.474-2.207V699.831a5.92,5.92,0,0,1,3.4-5.358l62.955-29.568a2.292,2.292,0,0,1,3.266,2.074v38.561A5.5,5.5,0,0,1,463.652,710.515Z" transform="translate(-397.187 -664.685)" fill="url(#linear-gradient)"/>
          <g id="Group_46491" data-name="Group 46491" transform="translate(8.873 16.679)">
            <path id="Path_98423" data-name="Path 98423" d="M604.685,753.352c0,3.807,3.086,5.35,6.893,3.447s6.893-6.533,6.893-10.34-3.086-5.35-6.893-3.447S604.685,749.545,604.685,753.352Zm1.408-.7c0-3.029,2.456-6.713,5.485-8.227s5.485-.287,5.485,2.742-2.456,6.713-5.485,8.227S606.093,755.677,606.093,752.648Z" transform="translate(-568.91 -742.197)" fill="#fff"/>
            <path id="Path_98424" data-name="Path 98424" d="M521.554,792.156c0,3.807,3.086,5.35,6.893,3.447s6.893-6.533,6.893-10.34-3.086-5.35-6.893-3.447S521.554,788.349,521.554,792.156Zm1.409-.7c0-3.029,2.456-6.713,5.485-8.227s5.485-.287,5.485,2.742-2.456,6.713-5.485,8.227S522.963,794.481,522.963,791.452Z" transform="translate(-503.667 -772.651)" fill="#fff"/>
            <path id="Path_98425" data-name="Path 98425" d="M438.424,830.96c0,3.807,3.086,5.35,6.893,3.447s6.893-6.533,6.893-10.34-3.086-5.35-6.893-3.447S438.424,827.153,438.424,830.96Zm1.408-.7c0-3.029,2.456-6.713,5.485-8.227s5.485-.287,5.485,2.742-2.456,6.713-5.485,8.227S439.832,833.285,439.832,830.256Z" transform="translate(-438.424 -803.106)" fill="#fff"/>
          </g>
          <g id="Group_46497" data-name="Group 46497" transform="translate(45.767 8.836)">
            <g id="Group_46496" data-name="Group 46496">
              <g id="Group_46492" data-name="Group 46492" transform="translate(3.286 23.528)" opacity="0.69">
                <path id="Path_98426" data-name="Path 98426" d="M625.764,820.2l8.162-3.827a1.1,1.1,0,0,0,.61-.893h0c0-.335-.274-.483-.61-.327l-8.162,3.827a1.1,1.1,0,0,0-.61.893h0C625.154,820.21,625.429,820.357,625.764,820.2Z" transform="translate(-625.154 -815.092)" fill="#fff"/>
              </g>
              <g id="Group_46493" data-name="Group 46493" transform="translate(3.286)" opacity="0.69">
                <path id="Path_98427" data-name="Path 98427" d="M625.764,710.86l8.162-3.827a1.1,1.1,0,0,0,.61-.893h0c0-.335-.274-.483-.61-.327l-8.162,3.827a1.1,1.1,0,0,0-.61.892h0C625.154,710.868,625.429,711.016,625.764,710.86Z" transform="translate(-625.154 -705.751)" fill="#fff"/>
              </g>
              <g id="Group_46494" data-name="Group 46494" transform="translate(3.286 30.968)" opacity="0.69">
                <path id="Path_98428" data-name="Path 98428" d="M625.764,854.781l8.162-3.827a1.1,1.1,0,0,0,.61-.893h0c0-.335-.274-.483-.61-.327l-8.162,3.827a1.1,1.1,0,0,0-.61.893h0C625.154,854.789,625.429,854.937,625.764,854.781Z" transform="translate(-625.154 -849.672)" fill="#fff"/>
              </g>
              <g id="Group_46495" data-name="Group 46495" transform="translate(0 27.417)" opacity="0.69">
                <path id="Path_98429" data-name="Path 98429" d="M610.5,839.883l11.448-5.434a1.1,1.1,0,0,0,.61-.893h0c0-.335-.274-.483-.61-.327L610.5,838.663a1.1,1.1,0,0,0-.61.893h0C609.885,839.891,610.16,840.039,610.5,839.883Z" transform="translate(-609.885 -833.167)" fill="#fff"/>
              </g>
            </g>
          </g>
          <g id="Group_46503" data-name="Group 46503" transform="translate(28.567 17.559)">
            <g id="Group_46502" data-name="Group 46502">
              <g id="Group_46498" data-name="Group 46498" transform="translate(3.286 23.528)" opacity="0.69">
                <path id="Path_98430" data-name="Path 98430" d="M545.827,860.739l8.162-3.827a1.1,1.1,0,0,0,.61-.893h0c0-.335-.275-.483-.61-.327l-8.162,3.827a1.1,1.1,0,0,0-.61.893h0C545.217,860.747,545.492,860.894,545.827,860.739Z" transform="translate(-545.217 -855.629)" fill="#fff"/>
              </g>
              <g id="Group_46499" data-name="Group 46499" transform="translate(3.286)" opacity="0.69">
                <path id="Path_98431" data-name="Path 98431" d="M545.827,751.4l8.162-3.827a1.1,1.1,0,0,0,.61-.893h0c0-.335-.275-.483-.61-.327l-8.162,3.827a1.1,1.1,0,0,0-.61.893h0C545.217,751.405,545.492,751.553,545.827,751.4Z" transform="translate(-545.217 -746.288)" fill="#fff"/>
              </g>
              <g id="Group_46500" data-name="Group 46500" transform="translate(3.286 30.968)" opacity="0.69">
                <path id="Path_98432" data-name="Path 98432" d="M545.827,895.318l8.162-3.827a1.1,1.1,0,0,0,.61-.893h0c0-.335-.275-.483-.61-.327l-8.162,3.827a1.1,1.1,0,0,0-.61.893h0C545.217,895.326,545.492,895.474,545.827,895.318Z" transform="translate(-545.217 -890.209)" fill="#fff"/>
              </g>
              <g id="Group_46501" data-name="Group 46501" transform="translate(0 27.417)" opacity="0.69">
                <path id="Path_98433" data-name="Path 98433" d="M530.558,880.42l11.448-5.434a1.1,1.1,0,0,0,.61-.893h0c0-.335-.275-.483-.61-.327L530.558,879.2a1.1,1.1,0,0,0-.61.893h0C529.948,880.428,530.223,880.576,530.558,880.42Z" transform="translate(-529.948 -873.704)" fill="#fff"/>
              </g>
            </g>
          </g>
          <g id="Group_46509" data-name="Group 46509" transform="translate(11.366 26.281)">
            <g id="Group_46508" data-name="Group 46508">
              <g id="Group_46504" data-name="Group 46504" transform="translate(3.285 23.528)" opacity="0.69">
                <path id="Path_98434" data-name="Path 98434" d="M465.889,901.275l8.162-3.827a1.1,1.1,0,0,0,.61-.893h0c0-.335-.274-.483-.61-.327l-8.162,3.827a1.1,1.1,0,0,0-.61.893h0C465.279,901.284,465.554,901.431,465.889,901.275Z" transform="translate(-465.279 -896.166)" fill="#fff"/>
              </g>
              <g id="Group_46505" data-name="Group 46505" transform="translate(3.285)" opacity="0.69">
                <path id="Path_98435" data-name="Path 98435" d="M465.889,791.934l8.162-3.827a1.1,1.1,0,0,0,.61-.893h0c0-.335-.274-.483-.61-.327l-8.162,3.827a1.1,1.1,0,0,0-.61.893h0C465.279,791.942,465.554,792.09,465.889,791.934Z" transform="translate(-465.279 -786.825)" fill="#fff"/>
              </g>
              <g id="Group_46506" data-name="Group 46506" transform="translate(3.285 30.968)" opacity="0.69">
                <path id="Path_98436" data-name="Path 98436" d="M465.889,935.855l8.162-3.827a1.1,1.1,0,0,0,.61-.893h0c0-.336-.274-.483-.61-.327l-8.162,3.827a1.1,1.1,0,0,0-.61.893h0C465.279,935.863,465.554,936.011,465.889,935.855Z" transform="translate(-465.279 -930.746)" fill="#fff"/>
              </g>
              <g id="Group_46507" data-name="Group 46507" transform="translate(0 27.417)" opacity="0.69">
                <path id="Path_98437" data-name="Path 98437" d="M450.621,920.957l11.448-5.434a1.1,1.1,0,0,0,.61-.893h0c0-.336-.274-.483-.61-.327l-11.448,5.434a1.1,1.1,0,0,0-.61.893h0C450.011,920.965,450.285,921.113,450.621,920.957Z" transform="translate(-450.011 -914.241)" fill="#fff"/>
              </g>
            </g>
          </g>
        </g>
        <g id="Group_46513" data-name="Group 46513" transform="translate(79.871)">
          <path id="Path_98438" data-name="Path 98438" d="M761.713,397.2,799.8,377.868a1.624,1.624,0,0,1,2.358,1.448v69.171l-42.22,21.43V400.086A3.233,3.233,0,0,1,761.713,397.2Z" transform="translate(-759.943 -377.69)" fill="url(#linear-gradient)"/>
          <path id="Path_98439" data-name="Path 98439" d="M794.589,472.462c-1.046,6.7,3.964,10.269,11.191,7.963s13.933-9.609,14.979-16.313-3.965-10.268-11.192-7.963S795.635,465.758,794.589,472.462Zm9.863-6.8a1.644,1.644,0,0,0-.243-.25.364.364,0,0,1,.242.248Zm-8.381,6.331c.927-5.944,6.874-12.42,13.282-14.465s10.851,1.116,9.924,7.06a17.174,17.174,0,0,1-4.263,8.321c.156-3.225-2.3-4.958-5.862-4.133l.013-.27c.141-.155.258-.295.334-.394a4.742,4.742,0,0,0,.733-2.288,1.955,1.955,0,0,0,.729-.476,2.767,2.767,0,0,0,.271-1.833,1.016,1.016,0,0,1,.067.1,8.655,8.655,0,0,0,.255-1.6,1.269,1.269,0,0,0-.612-1.25s.056-.809-1.183-1.071a6.735,6.735,0,0,0-5.569,2.366,5.328,5.328,0,0,0-.616,3.9v0c-.09.578-.068,1.33.165,1.433a1.129,1.129,0,0,0,.7.071s-.067,1.424.535,1.93a3.312,3.312,0,0,0,.311.229l-.03.635a.976.976,0,0,0,.1.113,12.331,12.331,0,0,0-4.89,5.011,21.637,21.637,0,0,0-.625,3.922C797.03,478.361,795.488,475.727,796.072,471.989Zm7.6-6.421c.006-.022.011-.044.018-.066,0,0,.009-.006.011-.01C803.686,465.517,803.676,465.54,803.667,465.568Zm-.084.35v0Zm7.182-2.462c.006-.007.011-.009.017-.016l-.021.024Z" transform="translate(-787.026 -438.716)" fill="#fffdff"/>
          <g id="Group_46511" data-name="Group 46511" transform="translate(10.529 48.634)">
            <path id="Path_98440" data-name="Path 98440" d="M826.495,612.636l14.258-6.686a1.92,1.92,0,0,0,1.066-1.559h0c0-.586-.479-.843-1.066-.572L826.495,610.5a1.921,1.921,0,0,0-1.066,1.559h0C825.429,612.65,825.908,612.908,826.495,612.636Z" transform="translate(-821.867 -603.711)" fill="#fdfdfd" opacity="0.69"/>
            <path id="Path_98441" data-name="Path 98441" d="M826.495,673.042l14.258-6.686a1.921,1.921,0,0,0,1.066-1.559h0c0-.586-.479-.843-1.066-.572l-14.258,6.686a1.92,1.92,0,0,0-1.066,1.559h0C825.429,673.056,825.908,673.313,826.495,673.042Z" transform="translate(-821.867 -651.119)" fill="#fdfdfd" opacity="0.69"/>
            <path id="Path_98442" data-name="Path 98442" d="M809.939,642.44l20-9.493A1.921,1.921,0,0,0,831,631.388h0c0-.586-.48-.843-1.065-.572l-20,9.492a1.92,1.92,0,0,0-1.065,1.559h0C808.874,642.455,809.353,642.712,809.939,642.44Z" transform="translate(-808.874 -624.899)" fill="#fdfdfd" opacity="0.69"/>
          </g>
          <g id="Group_46512" data-name="Group 46512" transform="translate(20.69 71.713)">
            <path id="Path_98443" data-name="Path 98443" d="M876.1,712.078c0,.379.307.532.686.343a1.289,1.289,0,0,0,.686-1.028c0-.379-.307-.532-.686-.343A1.29,1.29,0,0,0,876.1,712.078Z" transform="translate(-871.797 -710.968)" fill="#fdfdfd" opacity="0.69"/>
            <path id="Path_98444" data-name="Path 98444" d="M866.1,716.97c0,.379.307.532.686.343a1.29,1.29,0,0,0,.686-1.029c0-.379-.307-.532-.686-.343A1.29,1.29,0,0,0,866.1,716.97Z" transform="translate(-863.948 -714.807)" fill="#fdfdfd" opacity="0.69"/>
            <path id="Path_98445" data-name="Path 98445" d="M856.1,721.862c0,.379.307.532.686.343a1.289,1.289,0,0,0,.685-1.028c0-.379-.307-.532-.685-.343A1.289,1.289,0,0,0,856.1,721.862Z" transform="translate(-856.098 -718.648)" fill="#fdfdfd" opacity="0.69"/>
          </g>
        </g>
        <g id="Group_46519" data-name="Group 46519" transform="translate(27.65 50.978)" opacity="0.69">
          <g id="Group_46518" data-name="Group 46518">
            <g id="Group_46514" data-name="Group 46514" transform="translate(15.785 0.341)">
              <path id="Path_98446" data-name="Path 98446" d="M590.609,641.882l3.652-1.614v-1.41l-3.652,1.614Z" transform="translate(-590.609 -633.98)" fill="#fdfdfd"/>
              <path id="Path_98447" data-name="Path 98447" d="M590.609,630.547l3.652-1.614v-1.41l-3.652,1.614Z" transform="translate(-590.609 -625.083)" fill="#fdfdfd"/>
              <path id="Path_98448" data-name="Path 98448" d="M590.609,619.211l3.652-1.614v-1.41l-3.652,1.614Z" transform="translate(-590.609 -616.187)" fill="#fdfdfd"/>
            </g>
            <g id="Group_46515" data-name="Group 46515" transform="translate(10.523 0.227)">
              <path id="Path_98449" data-name="Path 98449" d="M566.156,652.69l3.652-1.614v-1.41l-3.652,1.614Z" transform="translate(-566.156 -642.348)" fill="#fdfdfd"/>
              <path id="Path_98450" data-name="Path 98450" d="M566.156,641.355l3.652-1.614v-1.41l-3.652,1.614Z" transform="translate(-566.156 -633.452)" fill="#fdfdfd"/>
              <path id="Path_98451" data-name="Path 98451" d="M566.156,630.019l3.652-1.614v-1.41l-3.652,1.614Z" transform="translate(-566.156 -624.556)" fill="#fdfdfd"/>
              <path id="Path_98452" data-name="Path 98452" d="M566.156,618.684l3.652-1.614v-1.41l-3.652,1.614Z" transform="translate(-566.156 -615.659)" fill="#fdfdfd"/>
            </g>
            <g id="Group_46516" data-name="Group 46516" transform="translate(5.262 0.114)">
              <path id="Path_98453" data-name="Path 98453" d="M541.7,663.5l3.652-1.614v-1.41l-3.652,1.614Z" transform="translate(-541.703 -650.717)" fill="#fdfdfd"/>
              <path id="Path_98454" data-name="Path 98454" d="M541.7,652.163l3.652-1.614v-1.41l-3.652,1.614Z" transform="translate(-541.703 -641.821)" fill="#fdfdfd"/>
              <path id="Path_98455" data-name="Path 98455" d="M541.7,640.827l3.652-1.614V637.8l-3.652,1.614Z" transform="translate(-541.703 -632.924)" fill="#fdfdfd"/>
              <path id="Path_98456" data-name="Path 98456" d="M541.7,629.492l3.652-1.614v-1.41l-3.652,1.614Z" transform="translate(-541.703 -624.028)" fill="#fdfdfd"/>
              <path id="Path_98457" data-name="Path 98457" d="M541.7,618.156l3.652-1.614v-1.41l-3.652,1.614Z" transform="translate(-541.703 -615.132)" fill="#fdfdfd"/>
            </g>
            <g id="Group_46517" data-name="Group 46517">
              <path id="Path_98458" data-name="Path 98458" d="M517.25,674.306l3.652-1.614v-1.41L517.25,672.9Z" transform="translate(-517.25 -659.086)" fill="#fdfdfd"/>
              <path id="Path_98459" data-name="Path 98459" d="M517.25,662.971l3.652-1.614v-1.41l-3.652,1.614Z" transform="translate(-517.25 -650.19)" fill="#fdfdfd"/>
              <path id="Path_98460" data-name="Path 98460" d="M517.25,651.635l3.652-1.614v-1.41l-3.652,1.614Z" transform="translate(-517.25 -641.293)" fill="#fdfdfd"/>
              <path id="Path_98461" data-name="Path 98461" d="M517.25,640.3l3.652-1.614v-1.41l-3.652,1.614Z" transform="translate(-517.25 -632.397)" fill="#fdfdfd"/>
              <path id="Path_98462" data-name="Path 98462" d="M517.25,628.964l3.652-1.614v-1.41l-3.652,1.614Z" transform="translate(-517.25 -623.501)" fill="#fdfdfd"/>
              <path id="Path_98463" data-name="Path 98463" d="M517.25,617.628l3.652-1.614V614.6l-3.652,1.614Z" transform="translate(-517.25 -614.604)" fill="#fdfdfd"/>
            </g>
          </g>
        </g>
      </g>
      <g id="Group_46522" data-name="Group 46522" transform="translate(37.634 4.041)">
        <g id="Group_46521" data-name="Group 46521">
          <path id="Path_98464" data-name="Path 98464" d="M741.271,674.528l4.422,55.281a2.153,2.153,0,0,0,2.139,2.7c2.72.236,4.259-2.428,4.259-2.428s.241-41.386,1.8-41.749,3.925,46.625,3.925,46.625a2.274,2.274,0,0,0,2.278,2.235c2.251.1,4.244-2.072,4.244-2.072l1.15-56.4Z" transform="translate(-703.051 -614.697)" fill="url(#linear-gradient-3)"/>
          <path id="Path_98465" data-name="Path 98465" d="M669.591,482.711s-23.753-7.521-25.012-6.957-14.926,11.52-14.926,11.52l-13.646,3.8a5.626,5.626,0,0,1,2.131,2.92c.066.254.122.5.16.723a5.492,5.492,0,0,1-.094,2.423s14.368-2.442,15.26-3.108,8.583-5.137,8.583-5.137v29.835s1.634,5.193,9.626,6.536,16.143-2.892,16.143-2.892v-7.165s12.734-1.334,12.809-3.559S671.723,483.443,669.591,482.711Zm-1.925,24.567v-9.09l4.667,8.067Z" transform="translate(-604.741 -458.67)" fill="#fff"/>
          <path id="Path_98466" data-name="Path 98466" d="M796.834,957.3s.158,1.135-.534,1.4-6.572,3.463-5.813,3.934,2.178,2.527,4.139,2.173,7.86-3.991,8.4-5.185-.113-3.482-.113-3.482Z" transform="translate(-741.624 -835.71)" fill="#131e60"/>
          <path id="Path_98467" data-name="Path 98467" d="M739.092,933.7s.158,1.135-.534,1.4-6.572,3.463-5.813,3.934,2.178,2.527,4.139,2.173,7.86-3.991,8.4-5.185-.113-3.482-.113-3.482Z" transform="translate(-696.306 -817.186)" fill="#131e60"/>
          <path id="Path_98468" data-name="Path 98468" d="M575.335,548.248s-3.677-.164-4.436-.066a56.272,56.272,0,0,0-7.24,2.368c0,.21-.286,1.471,2.11.546a15.517,15.517,0,0,1,4.456-1.009s-.546,2.69,0,3.111,2.943,2.69,3.825,2.1,3.237-2.1,3.237-2.1A4.582,4.582,0,0,0,575.335,548.248Z" transform="translate(-563.648 -515.513)" fill="url(#linear-gradient-4)"/>
          <path id="Path_98469" data-name="Path 98469" d="M804.224,493.5l-4.689,1.518,1.533,2.484,4.856-3.468S804.773,493.321,804.224,493.5Z" transform="translate(-748.778 -472.599)" fill="#fefefe"/>
          <path id="Path_98470" data-name="Path 98470" d="M784.186,483.575l-2.466.575.84-4.526,1.2.256Z" transform="translate(-734.796 -461.731)" fill="#fefefe"/>
          <path id="Path_98471" data-name="Path 98471" d="M774.565,422.379s-.6,2.294,0,2.733.6.439.305.781a4.707,4.707,0,0,0-.571,3.27c.181,1.855-.217,6.051.762,6.735a4.384,4.384,0,0,0,2.59.488v1.025s.635,1.415,2.928,1.318a6.424,6.424,0,0,0,3.807-1.513s-.2-6.1.683-7.808a5.141,5.141,0,0,0-1.025-5.9C782.337,421.891,774.794,421.125,774.565,422.379Z" transform="translate(-728.94 -416.314)" fill="url(#linear-gradient-5)"/>
          <path id="Path_98472" data-name="Path 98472" d="M772.744,400.974c-.147,2.294.927,3.465,3.27,4.05a6.042,6.042,0,0,0,3.66,0s-.635.732.634.879,1.171.927,1.22,2.44.488,2.733.488,1.61.635-2.489,1.22-2-.339,2.733.2,3.27,3.22-1.367,4.488-5.124-.976-5.612-.976-5.612a4.694,4.694,0,0,0-3.807-3.953C779.674,395.85,772.744,400.974,772.744,400.974Z" transform="translate(-727.741 -396.471)" fill="#131e60"/>
          <path id="Path_98473" data-name="Path 98473" d="M770.6,497.984l-1.233.287L764.41,535.1l1.79,2.257,2.646-1.2,3.657-36.73-.535-.867Z" transform="translate(-721.211 -476.141)" fill="#1788dd"/>
          <path id="Path_98474" data-name="Path 98474" d="M751.29,556.433,735.676,548.3V522.388l15.614,8.131Z" transform="translate(-698.66 -495.294)" fill="#eaf1f7"/>
          <path id="Path_98475" data-name="Path 98475" d="M787.132,633.338s1.938,1.22,1.938,2.987a5.772,5.772,0,0,1-.57,2.737,27.5,27.5,0,0,0-4.732.684c-1.767.513-6.955-3.592-3.078-4.675s4.618-.171,4.5-1.026.285-1.736.627-1.552S787.132,633.338,787.132,633.338Z" transform="translate(-732.885 -581.687)" fill="url(#linear-gradient-4)"/>
          <path id="Path_98476" data-name="Path 98476" d="M824.433,546.075a36.633,36.633,0,0,1,0-6.879l.4-2.455a16.947,16.947,0,0,0-2.411,8.016c-.326,5.018-.326,10.918-.326,10.918l-6.342,2.534s5.951-1.069,7.255-1.786,1.424-1.258,1.424-1.258Z" transform="translate(-761.507 -506.558)" fill="#131e60" opacity="0.29"/>
          <path id="Path_98477" data-name="Path 98477" d="M829.573,659.246l-7.461.832s5.43.115,5.691,1.289.825,5.49.825,5.49l.945-.445Z" transform="translate(-766.497 -602.703)" fill="#131e60" opacity="0.29"/>
        </g>
      </g>
    </g>
  </g>
</svg>
