<svg xmlns="http://www.w3.org/2000/svg" xmlns:xlink="http://www.w3.org/1999/xlink" width="189.681" height="148.614" viewBox="0 0 189.681 148.614">
  <defs>
    <linearGradient id="linear-gradient" y1="0.5" x2="1" y2="0.5" gradientUnits="objectBoundingBox">
      <stop offset="0" stop-color="#1788dd"/>
      <stop offset="1" stop-color="#2c9dbc"/>
    </linearGradient>
    <linearGradient id="linear-gradient-2" x1="0.245" y1="-5.426" x2="0.523" y2="-3.855" gradientUnits="objectBoundingBox">
      <stop offset="0" stop-color="#66d5ea"/>
      <stop offset="1" stop-color="#0087e7"/>
    </linearGradient>
    <linearGradient id="linear-gradient-3" x1="0.478" y1="-2.529" x2="0.498" y2="-1.738" xlink:href="#linear-gradient-2"/>
    <linearGradient id="linear-gradient-4" y1="0.5" x2="1" y2="0.5" gradientUnits="objectBoundingBox">
      <stop offset="0" stop-color="#2c9dbc"/>
      <stop offset="0.992" stop-color="#1788dd"/>
    </linearGradient>
    <linearGradient id="linear-gradient-5" y1="0.5" x2="1" y2="0.5" gradientUnits="objectBoundingBox">
      <stop offset="0" stop-color="#3060ab"/>
      <stop offset="1" stop-color="#131e60"/>
    </linearGradient>
    <linearGradient id="linear-gradient-6" x1="0" y1="0.5" x2="1" y2="0.5" xlink:href="#linear-gradient-5"/>
    <linearGradient id="linear-gradient-7" y1="0.5" x2="1" y2="0.5" gradientUnits="objectBoundingBox">
      <stop offset="0" stop-color="#ffd9d9"/>
      <stop offset="1" stop-color="#efb4b4"/>
    </linearGradient>
    <linearGradient id="linear-gradient-8" x1="0" y1="0.5" x2="1" y2="0.5" xlink:href="#linear-gradient-5"/>
    <linearGradient id="linear-gradient-12" x1="0" y1="0.5" x2="1" y2="0.5" xlink:href="#linear-gradient-7"/>
    <linearGradient id="linear-gradient-20" x1="351.19" y1="0.543" x2="352.605" y2="0.4" xlink:href="#linear-gradient-5"/>
    <linearGradient id="linear-gradient-21" x1="0" y1="0.5" x2="1" y2="0.5" xlink:href="#linear-gradient-5"/>
    <linearGradient id="linear-gradient-24" x1="0" y1="0.5" x2="1" y2="0.5" xlink:href="#linear-gradient-7"/>
  </defs>
  <g id="アートワーク_38" data-name="アートワーク 38" transform="translate(94.841 74.307)">
    <g id="Group_47687" data-name="Group 47687" transform="translate(-94.841 -74.307)">
      <path id="Path_100917" data-name="Path 100917" d="M53.542,104.862l37.835,17.751a4.4,4.4,0,0,0,2.243.21l.35-.058,16.48-6.879" transform="translate(-14.938 23.6)" fill="none" stroke="#1788dd" stroke-width="1.416"/>
      <g id="Group_47668" data-name="Group 47668">
        <path id="Path_100918" data-name="Path 100918" d="M30.219,160.792l106.2-54.314a2.835,2.835,0,0,0,1.541-2.522V20.2a2.047,2.047,0,0,0-2.982-1.821L28.231,72.968a3.592,3.592,0,0,0-1.95,3.195v82.225A2.7,2.7,0,0,0,30.219,160.792Z" transform="translate(-26.281 -12.481)" fill="#eaf1f7"/>
        <path id="Path_100919" data-name="Path 100919" d="M28.231,68.968,134.982,14.374a2.047,2.047,0,0,1,2.982,1.821v5.418L26.281,78.741V72.163A3.592,3.592,0,0,1,28.231,68.968Z" transform="translate(-26.281 -14.145)" fill="url(#linear-gradient)"/>
      </g>
      <g id="Group_47673" data-name="Group 47673" transform="translate(8.276 18.836)">
        <g id="Group_47672" data-name="Group 47672">
          <path id="Path_100920" data-name="Path 100920" d="M36.424,147.728l91.691-46.3a3.094,3.094,0,0,0,1.681-2.753V29.684a2.235,2.235,0,0,0-3.256-1.988L34.255,74.3a3.919,3.919,0,0,0-2.13,3.486V145.1A2.95,2.95,0,0,0,36.424,147.728Z" transform="translate(-32.125 -27.447)" fill="#fff"/>
          <g id="Group_47671" data-name="Group 47671" transform="translate(4.437 18.098)">
            <g id="Group_47670" data-name="Group 47670">
              <g id="Group_47669" data-name="Group 47669" transform="translate(11.682)">
                <path id="Path_100921" data-name="Path 100921" d="M43.508,75.929v27.3l6.731-3.527V72.245Z" transform="translate(-43.508 -26.905)" fill="url(#linear-gradient-2)"/>
                <path id="Path_100922" data-name="Path 100922" d="M51.466,80.275V95.487L58.2,91.96V76.592Z" transform="translate(-40.197 -25.096)" fill="#1788dd"/>
                <path id="Path_100923" data-name="Path 100923" d="M59.423,72.893V92.62l6.731-3.527V69.21Z" transform="translate(-36.886 -28.168)" fill="#1788dd"/>
                <path id="Path_100924" data-name="Path 100924" d="M67.381,63.349v27.3l6.731-3.527V59.666Z" transform="translate(-33.575 -32.139)" fill="#1788dd"/>
                <path id="Path_100925" data-name="Path 100925" d="M75.338,53.171V88.95l6.731-3.527V49.488Z" transform="translate(-30.264 -36.374)" fill="#1788dd"/>
                <path id="Path_100926" data-name="Path 100926" d="M83.3,43.91V86.866l6.731-3.527V40.227Z" transform="translate(-26.953 -40.227)" fill="#1788dd"/>
                <path id="Path_100927" data-name="Path 100927" d="M91.254,50.769v27.3l6.731-3.527V47.086Z" transform="translate(-23.642 -37.373)" fill="#1788dd"/>
              </g>
              <path id="Path_100928" data-name="Path 100928" d="M128.182,77.644l-.364-.748L40.365,122.72v-4.938l.314-.165-.314-.646v-6.26l.314-.164-.314-.646v-6.26l.314-.164-.314-.646V96.565l.314-.164-.314-.646v-6.26l.314-.164-.314-.646V82.421l.314-.165-.314-.646V75.35l.314-.164-.314-.646v-6.26l.314-.164-.314-.646v-4.9l-.847.044v5.175l-4.26,2.232.364.748,3.9-2.041v6.132l-4.26,2.232.364.748,3.9-2.041v6.132l-4.26,2.235.364.748,3.9-2.044V89l-4.26,2.232.364.748,3.9-2.041V96.07L35.259,98.3l.364.748,3.9-2.041v6.135l-4.26,2.232.364.748,3.9-2.041v6.132l-4.26,2.232.364.748,3.9-2.041v6.132l-4.26,2.235.364.748,3.9-2.044V124.1Z" transform="translate(-35.259 -30.933)" fill="url(#linear-gradient-3)"/>
            </g>
            <path id="Path_100929" data-name="Path 100929" d="M39.618,69.756l8.782-6.2v9.589l4.988-8.114,10.618,3.319,14.426-3.319,4.522,10.142,10.274-5.415L96.644,79.6l5.57-9.662,9.374,3.024L121.63,62.571l3.728,1.9" transform="translate(-33.444 -30.93)" fill="none" stroke="#e2e100" stroke-width="1.062"/>
          </g>
        </g>
        <ellipse id="Ellipse_2384" data-name="Ellipse 2384" cx="5.491" cy="5.491" rx="5.491" ry="5.491" transform="translate(43.767 47.687)" fill="#e2e100"/>
        <ellipse id="Ellipse_2385" data-name="Ellipse 2385" cx="4.393" cy="4.393" rx="4.393" ry="4.393" transform="translate(63.63 63.074)" fill="#e2e100"/>
        <ellipse id="Ellipse_2386" data-name="Ellipse 2386" cx="4.393" cy="4.393" rx="4.393" ry="4.393" transform="translate(14.214 58.682)" fill="#e2e100"/>
        <circle id="Ellipse_2387" data-name="Ellipse 2387" cx="2.219" cy="2.219" r="2.219" transform="translate(32.884 53.146)" fill="#e2e100"/>
        <circle id="Ellipse_2388" data-name="Ellipse 2388" cx="2.219" cy="2.219" r="2.219" transform="translate(80.08 57.515)" fill="#e2e100"/>
      </g>
      <path id="Path_100930" data-name="Path 100930" d="M80.651,108.387l30.071-14.318a9.511,9.511,0,0,1,8.107-.033l31.516,14.692a2.2,2.2,0,0,1,0,3.993L117.7,127.983a5.209,5.209,0,0,1-4.391.008L80.676,112.9A2.494,2.494,0,0,1,80.651,108.387Z" transform="translate(-4.25 18.725)" fill="url(#linear-gradient-4)"/>
      <g id="Group_47684" data-name="Group 47684" transform="translate(87.498 18.584)">
        <g id="Group_47683" data-name="Group 47683">
          <g id="Group_47682" data-name="Group 47682">
            <g id="Group_47674" data-name="Group 47674" transform="translate(18.211 95.553)">
              <path id="Path_100931" data-name="Path 100931" d="M104.716,98.716c1.527.881,2.552,2.484,5.606,4.03,1.773.895,6.061,1.61,5.892-.354a1.483,1.483,0,0,0-.061-.329,2.576,2.576,0,0,1,.259.848c.167,1.966-4.118,1.252-5.892.354-3.052-1.545-4.081-3.149-5.606-4.032-.191-.109-.419-.228-.658-.354v.479l-3.045-1.427a3.312,3.312,0,0,1-.173-1.092C101.429,97.183,103.638,98.089,104.716,98.716Z" transform="translate(-100.885 -93.875)" fill="#00267e"/>
              <path id="Path_100932" data-name="Path 100932" d="M108.4,94.746a7.638,7.638,0,0,0,1.065,2.14,5.145,5.145,0,0,0,1.4,1.141c1.762.792,5.244,3.431,5.4,5.237.169,1.964-4.119,1.249-5.892.354-3.054-1.546-4.08-3.149-5.606-4.03-1.158-.674-3.628-1.67-3.734-1.944a4.259,4.259,0,0,1,.055-2.042C105.8,98.459,106.886,95.06,108.4,94.746Z" transform="translate(-100.93 -94.746)" fill="#00267e"/>
            </g>
            <g id="Group_47675" data-name="Group 47675" transform="translate(8.229 101.649)">
              <path id="Path_100933" data-name="Path 100933" d="M101.058,100.256c-.112,1.165,1.082,2.849,1.184,2.982.613.79,5.589,6.161,3.043,7.477s-6.826-.943-7.725-2.856-.743-3.2-1.886-4.342a5.847,5.847,0,0,1-1.743-2.7,3.011,3.011,0,0,1,.259-1.749c.139-.292,1.474,2.426,2.825,2.62C98.206,101.866,100.175,100.656,101.058,100.256Z" transform="translate(-93.881 -99.051)" fill="#00267e"/>
              <path id="Path_100934" data-name="Path 100934" d="M95.628,102.845c1.143,1.141.987,2.433,1.886,4.342s5.177,4.172,7.725,2.856a1.235,1.235,0,0,0,.664-.79,1.265,1.265,0,0,1-.649,1.184c-2.406,1.245-6.814-.862-7.667-2.669-.83-1.759-.714-2.97-1.708-4.027l-.027.341a8.424,8.424,0,0,1-1.861-2.284l.054-1.13A6.634,6.634,0,0,0,95.628,102.845Z" transform="translate(-93.835 -98.378)" fill="#00267e"/>
            </g>
            <path id="Path_100935" data-name="Path 100935" d="M102.6,69.914l-.016-7.065s6.354.684,9.019-2.563a.027.027,0,0,1,.05.016c-.014,1.233,0,10.673-1.131,23.12-.59,6.49-.583,15.254-.881,18.085s-1.027,7.594.323,10.26c0,0-5.729,1.923-9.243-.8L101.653,98Z" transform="translate(-82.807 -13.536)" fill="url(#linear-gradient-5)"/>
            <path id="Path_100936" data-name="Path 100936" d="M109.576,62.733s-.329,7.811-.928,10.029a34.427,34.427,0,0,0-.8,4.24c-.582,4.407-1.284,11.872-1.5,13.718-.415,3.625-1.818,10.677-2.2,13.138s-1.645,14.938-1.645,14.938-6.016-.159-8.662-3.554c0,0,.811-11.028,1.27-14.614s.439-18.708.481-24.8,2.3-14.42,2.3-14.42S99.09,64.219,109.576,62.733Z" transform="translate(-85.668 -13.063)" fill="url(#linear-gradient-6)"/>
            <g id="Group_47676" data-name="Group 47676" transform="translate(12.276 12.565)">
              <path id="Path_100937" data-name="Path 100937" d="M108.068,41.039s3.459,10.077,3.416,14.2,1.065,14.128,1.065,14.128-.813,1.578-4.078,2.164a16.433,16.433,0,0,1-5.422.191S98.816,53.213,97.8,50.568s.565-9.941.565-9.941,3.6,3.273,6.528,2.144S108.068,41.039,108.068,41.039Z" transform="translate(-96.437 -34.276)" fill="#e6f6ff"/>
              <path id="Path_100938" data-name="Path 100938" d="M109.08,67.556l-1.932,2.58-1.621-1.575s-.214-8.528-.6-13.014c-.337-3.879-.837-7.7-.984-9.907a10.342,10.342,0,0,1-2.235-1.7s.481-1.647,1.427-2.009,2.008,1.116,2.008,1.116a7.411,7.411,0,0,1-.307,2.226" transform="translate(-94.672 -33.757)" fill="#1788dd"/>
              <path id="Path_100939" data-name="Path 100939" d="M98.182,36.142l8.385,3.57s.341,4.347-1.661,4.9-7.2-4.479-7.2-4.479C98.584,39.107,98.182,36.142,98.182,36.142Z" transform="translate(-96.337 -36.142)" fill="url(#linear-gradient-7)"/>
              <path id="Path_100940" data-name="Path 100940" d="M103.878,38.865h.507c1.518,2.887.8,6.79.8,6.79l-2.472-2.472C104.732,41.843,103.878,38.865,103.878,38.865Z" transform="translate(-94.253 -35.009)" fill="#fdfdfd"/>
              <path id="Path_100941" data-name="Path 100941" d="M98.069,38.608s.912,2.866,7.131,4.682l-1.008,3.423s-5-3.114-7.453-6.709Z" transform="translate(-96.739 -35.116)" fill="#fdfdfd"/>
            </g>
            <path id="Path_100942" data-name="Path 100942" d="M106.784,38.833c.964.6,3.9,6.871,4.224,9.707s-.324,11.926-.2,15.152,2.776,15.653,2.776,15.653c-1.806,5.282-3.162,1.694-3.315.879-1.233-6.6-1.78-20.981-2.685-27.881A40.485,40.485,0,0,0,103.269,39.4l1.059-1.146Z" transform="translate(-81.746 -22.698)" fill="url(#linear-gradient-8)"/>
            <path id="Path_100943" data-name="Path 100943" d="M103.269,39.231l1.592-.568,3.536,5.632-1.041,1.444s1.866.326,2.116.408.377,5.966.1,9.605c-.153,2.039-.6,4.885-.971,7-.33-3.974-.649-7.777-1.015-10.581A40.485,40.485,0,0,0,103.269,39.231Z" transform="translate(-81.746 -22.528)" fill="url(#linear-gradient-8)"/>
            <g id="Group_47677" data-name="Group 47677" transform="translate(5.285 16.703)">
              <path id="Path_100944" data-name="Path 100944" d="M99.507,39.064s2.671,4.945,4.3,7.459,4.172,9.823,4.427,14.468c.262,4.737.108,21.243-.692,23.035s-13.246-2.2-13.246-2.2,1.245-9.219,2.145-13-1.345-11.62-2.658-13.7-2.8-8.131-1.456-9.553A90.675,90.675,0,0,1,99.507,39.064Z" transform="translate(-91.802 -39.064)" fill="url(#linear-gradient-6)"/>
              <path id="Path_100945" data-name="Path 100945" d="M96,40.367l1.764-1.3s2.671,4.945,4.3,7.459,4.172,9.823,4.427,14.468c.054.943.044,2.31-.006,3.907-.557-1.9-1.6-4.441-1.984-5.52-1.44-4.1-5.286-8.448-4.987-8.961a13.111,13.111,0,0,1,1.763-1.753l-2.018.214S96.917,43.5,96,40.367Z" transform="translate(-90.056 -39.064)" fill="url(#linear-gradient-6)"/>
            </g>
            <g id="Group_47678" data-name="Group 47678" transform="translate(11.295)">
              <path id="Path_100946" data-name="Path 100946" d="M98.478,34.789s-.719-.895-1.47-.506-.518,1.124-.127,1.794,1.79,2.148,2.3,1.692S98.478,34.789,98.478,34.789Z" transform="translate(-95.85 -24.391)" fill="url(#linear-gradient-12)"/>
              <path id="Path_100947" data-name="Path 100947" d="M105.988,29.159c1.223.7,2.291,2.64,2.8,3.957a5.547,5.547,0,0,1,.487,2.423c-.031.326-.5.821-.295,1.24a5.914,5.914,0,0,1,.075,2.447c-.119.8-.527,1.912-.578,2.625s.222,2.5-1.587,2.805-6.007-1.27-7.437-3.414-3.088-3.887-3.308-6.48a6.475,6.475,0,0,1,2.846-6.292C101.162,27.032,103.991,28.015,105.988,29.159Z" transform="translate(-96.02 -27.068)" fill="url(#linear-gradient-7)"/>
              <path id="Path_100948" data-name="Path 100948" d="M104.346,27.408c3.185.578,4.788,3.137,4.842,4.077a.982.982,0,0,1-.687,1.106,1.746,1.746,0,0,1-1.063,1.249c-1.092.309-4.284-.358-4.9.506s-.6,1.514-1.11,1.873a8.066,8.066,0,0,0-1.27,2.682c-.017.171-1.7-1.691-3.268-1.416a7,7,0,0,1-.719-2.521c-.023-.245-.028-.486-.031-.722C95.246,27.837,101.158,26.834,104.346,27.408Z" transform="translate(-96.046 -27.269)" fill="url(#linear-gradient-6)"/>
              <path id="Path_100949" data-name="Path 100949" d="M96.861,35.436a7,7,0,0,1-.719-2.521c-.023-.245-.028-.484-.031-.722,1.6,1.19,4.454,1.572,5.568,1.681a1.107,1.107,0,0,1-.279.3,8.066,8.066,0,0,0-1.27,2.682C100.112,37.023,98.43,35.161,96.861,35.436Z" transform="translate(-96.02 -25.22)" fill="#281080"/>
            </g>
            <g id="Group_47679" data-name="Group 47679" transform="translate(0 22.502)">
              <path id="Path_100950" data-name="Path 100950" d="M100.23,57.191a9.822,9.822,0,0,0,3.145-.2c1-.387,3.645-.929,5.024-.408a12.556,12.556,0,0,1,4.254,2.443c.879,1.008.477,1.536-.088,1.536,0,0,.9.6.382,1.18-.255.287-1.223,0-1.223,0s.569.541,0,.858a1.849,1.849,0,0,1-1.311.072s-.055.47-.3.585c-.535.253-1.832-.263-2.676-.585a14.147,14.147,0,0,0-3.3-.5c-.78-.045-2.376-.98-3.2-1.133a15.087,15.087,0,0,0-2.831.047Z" transform="translate(-83.895 -37.664)" fill="url(#linear-gradient-7)"/>
              <path id="Path_100951" data-name="Path 100951" d="M101.023,56.886h.95a8,8,0,0,0-.559,5.068H99.889a7.186,7.186,0,0,1-.161-2.692A3.07,3.07,0,0,1,101.023,56.886Z" transform="translate(-83.238 -37.448)" fill="#eef5f9"/>
              <path id="Path_100952" data-name="Path 100952" d="M106.245,62.41s-1.687,3.386-.586,5.9c0,0-11.245.055-14.1-.67-1.222-.309-2.359-.518-2.9-1.188-.722-.895-.613-2.368-.521-3.68a91.228,91.228,0,0,1,2.919-13.12c1.008-3.057,1.868-7.229,5.66-6.382s3.009,7.391,1.763,10.166-3.822,8.41-3.822,8.41Z" transform="translate(-88.07 -43.159)" fill="url(#linear-gradient-6)"/>
            </g>
            <g id="Group_47681" data-name="Group 47681" transform="translate(25.137 16.211)">
              <g id="Group_47680" data-name="Group 47680" transform="translate(24.712 3.718)">
                <path id="Path_100953" data-name="Path 100953" d="M123.272,48.4l3.006-1.038s.453-2.236.6-2.582a14.708,14.708,0,0,1,2.618-1.493c.239-.152.993-.229,1.095.18,0,0,1.316-.766,2.235-1.29s2.362-1.187,2.7-.613.027.739-.753,1.24-2.719,1.721-2.719,1.721l.385.14a9.956,9.956,0,0,1,1.966-.843.822.822,0,0,1,.726.78,2.514,2.514,0,0,1-.152,1.072s.65.166.574.714a1.63,1.63,0,0,1-.537,1.008,2.924,2.924,0,0,1-.882.382,1.586,1.586,0,0,0,.564.191c.217,0,.892.27.739.714s-.433.755-1.276.755a4.789,4.789,0,0,0-2.44.69,6.788,6.788,0,0,1-2.885.5,7.3,7.3,0,0,0-2.766.768c-.854.406-1.519.765-1.519.765Z" transform="translate(-123.272 -41.343)" fill="url(#linear-gradient-7)"/>
              </g>
              <path id="Path_100954" data-name="Path 100954" d="M124.6,45.827l.9-.33,1.278,4.725-1.242.425Z" transform="translate(-98.006 -35.896)" fill="#eef5f9"/>
              <path id="Path_100955" data-name="Path 100955" d="M109.946,48.348c-.313-2.746-3.074-8.709-4.125-9.631h0a8.465,8.465,0,0,1,3.944,2.335c.952,1.027,6.908,7.461,8,8.383s3.018,2.351,3.018,2.351,2.511-.787,5.047-1.4,6.718-1.939,6.718-1.939l1.684,5.831s-9.156,3.267-11.663,4.213-4.107.353-5.912-1.168c-1.351-1.14-4.912-4.039-6.63-5.434A32.328,32.328,0,0,0,109.946,48.348Z" transform="translate(-105.821 -38.717)" fill="url(#linear-gradient-6)"/>
              <path id="Path_100956" data-name="Path 100956" d="M109.268,47.153a22.9,22.9,0,0,0-1.817-5.565,8.99,8.99,0,0,1,1.827,1.866c1.6,2.247,3.442,5.394,5.118,7.685,1.541,2.1,4.592,4.131,5.079,6.413a5.1,5.1,0,0,1-3.5-1.427c-1.351-1.14-4.912-4.039-6.63-5.434A32.328,32.328,0,0,0,109.268,47.153Z" transform="translate(-105.143 -37.522)" fill="url(#linear-gradient-6)"/>
            </g>
          </g>
        </g>
      </g>
      <g id="Group_47686" data-name="Group 47686" transform="translate(140.81 40.675)">
        <g id="Group_47685" data-name="Group 47685" transform="translate(17.093 48.244)">
          <path id="Path_100957" data-name="Path 100957" d="M147.877,112.934s1.519.3,1.614.817-.476,1.078.221,1.078,2.658-1.821,3.1-1.895.064,2.192,0,2.489-5.285,4.238-6.234,3.941-2.975-.818-1.9-2.008a32.862,32.862,0,0,0,2.784-3.084A2.6,2.6,0,0,0,147.877,112.934Z" transform="translate(-135.048 -61.961)" fill="#0a2a50"/>
          <path id="Path_100958" data-name="Path 100958" d="M141.007,109.614s1.395.273,1.483.752-.436.99.2.99,2.443-1.674,2.849-1.742.058,2.015,0,2.288-4.854,3.893-5.727,3.62-2.733-.752-1.745-1.844a30.654,30.654,0,0,0,2.559-2.835A2.394,2.394,0,0,0,141.007,109.614Z" transform="translate(-137.788 -63.342)" fill="#0a2a50"/>
          <path id="Path_100959" data-name="Path 100959" d="M137.979,78.454s1.688,22.816,2.261,29.593c.558,6.76.749,15.968.749,15.968a2.3,2.3,0,0,0,2,1.173,1.726,1.726,0,0,0,.528-.017,3.821,3.821,0,0,0,2.232-1.086s.132-12.726.381-18.555c.251-5.812-.453-20.223-.453-20.223s4.08,20.084,4.52,26.484c.44,6.415.44,16.934.44,16.934s.059.879,1.763,1.242c1.688.38,3.067-1.6,3.067-1.6s1.307-20.021.368-24.59.132-22.953-.807-25.317-17.091-1.259-17.091-1.259Z" transform="translate(-137.727 -76.937)" fill="url(#linear-gradient-20)"/>
        </g>
        <path id="Path_100960" data-name="Path 100960" d="M149.717,44.243s-3.4-.062-2.767,3.719-3.052,5.269-3.052,5.269a4.472,4.472,0,0,0,5.384-.641C152.045,50.195,149.717,44.243,149.717,44.243Z" transform="translate(-118.153 -42.297)" fill="url(#linear-gradient-21)"/>
        <path id="Path_100961" data-name="Path 100961" d="M155.816,45.239h1.966s2.395-2.087,3.928.736.615,5.218-1.044,8.1-3.268,5.831-1.511,8.042a3.164,3.164,0,0,0,3.906,1.107s-4.109,2.14-6.813-.65-2.825-8.324-2.825-8.324S157.414,47.634,155.816,45.239Z" transform="translate(-114.189 -42.192)" fill="url(#linear-gradient-6)"/>
        <path id="Path_100962" data-name="Path 100962" d="M156.933,54.3a2.11,2.11,0,0,0,1.832,2.271,8.488,8.488,0,0,0,3.665,0s6.892,3.913,7.7,5.6-2.64,23.252-4.179,23.506-6.3-2.2-6.3-2.2a14.42,14.42,0,0,0-.957,3.243c-.439,2.2-.164,1.645-.164,1.645a21.327,21.327,0,0,1-9.216,1.81c-5.925,0-7.9-3.127-7.9-3.127l3.723-17.574s-2.931,4.105-5.717,2.713-9.9-12.535-9.9-12.535a8.788,8.788,0,0,0,2.859-1.246,3.043,3.043,0,0,0,.9-1.8s6.725,9.132,7.457,8.913,6.6-9.383,7.7-11.215,5.132-.367,6.231,0A4.181,4.181,0,0,0,156.933,54.3Z" transform="translate(-124.137 -38.49)" fill="#eaf1f7"/>
        <path id="Path_100963" data-name="Path 100963" d="M145.229,55.151s-3.2,4.5-3.265,5.974,1.041,6.059.739,6.835l-.3.776s-1.718,2.586-3.341,2.773a6.052,6.052,0,0,1-2.988-.463,6.4,6.4,0,0,0,3.489-1.854c1.355-1.539,2.525-2.587,2.157-3.695s-.947-4.286.113-5.9S145.229,55.151,145.229,55.151Z" transform="translate(-121.408 -37.758)" fill="#08011c" opacity="0.2"/>
        <path id="Path_100964" data-name="Path 100964" d="M160,60.939s-1.512,1.484-2.583,6.651-1.828,6.933-1.388,8.193,1.45,4.033,1.45,4.033a37.49,37.49,0,0,0-2.9-3.661c-.882-.814-7.689-9.07-7.689-9.07s7.247,7.878,7.815,7.437,1.89-7.752,2.71-9.894A10.578,10.578,0,0,1,160,60.939Z" transform="translate(-116.907 -35.35)" fill="#08011c" opacity="0.2"/>
        <path id="Path_100965" data-name="Path 100965" d="M134.586,58a8.248,8.248,0,0,0-1.43-3.712,7.8,7.8,0,0,0-2.4-2.045s-.755.269,0,1.157a2.687,2.687,0,0,1,.762,1.51s-2.182-1.143-4.047-2.236-2.664.15-.266,2.9A50.241,50.241,0,0,0,131.52,60,3.857,3.857,0,0,0,134.586,58Z" transform="translate(-125.717 -38.967)" fill="url(#linear-gradient-7)"/>
        <path id="Path_100966" data-name="Path 100966" d="M146.7,69.268a2.375,2.375,0,0,0,1.493-1.089,3.147,3.147,0,0,0,.623-1.48s-1.892-3.394-2.116-3.692-4.047-2.388-4.047-2.388-1.062.037.28,1.194,1.5,1.231,1.644,1.939-.794,3.121-.511,3.612A15.1,15.1,0,0,0,146.7,69.268Z" transform="translate(-118.835 -35.483)" fill="url(#linear-gradient-24)"/>
        <path id="Path_100967" data-name="Path 100967" d="M148.6,47.9a2.857,2.857,0,0,0-2.025,2.579c-.062,2.026-.51,5.218.511,5.526s3.6-.491,3.6,0a5.1,5.1,0,0,1-.789,1.645s-.378,1.585,1.832,2.271a6.344,6.344,0,0,0,3.93,0s-.675-5.943.307-6.987,1.228-7.059,0-7.551S148.6,47.9,148.6,47.9Z" transform="translate(-117.102 -41.845)" fill="url(#linear-gradient-7)"/>
        <path id="Path_100968" data-name="Path 100968" d="M156.818,43.522a8.652,8.652,0,0,0-7.182.307,4.375,4.375,0,0,0-1.017,7.182,7.11,7.11,0,0,0,4.393,1.658s.37-1.78,1.29-1.044-.97,1.59-.976,2.177.116,2.611,2.2,1.814,3.789-2.118,4.35-5.541S159.216,44.115,156.818,43.522Z" transform="translate(-116.788 -42.869)" fill="url(#linear-gradient-6)"/>
      </g>
    </g>
  </g>
</svg>
