<svg xmlns="http://www.w3.org/2000/svg" xmlns:xlink="http://www.w3.org/1999/xlink" width="108.758" height="57.185" viewBox="0 0 108.758 57.185">
  <defs>
    <clipPath id="clip-path">
      <rect id="Rectangle_6923" data-name="Rectangle 6923" width="108.758" height="57.185" fill="none"/>
    </clipPath>
  </defs>
  <g id="Group_47563" data-name="Group 47563" transform="translate(0 0)">
    <rect id="Rectangle_6928" data-name="Rectangle 6928" width="107" height="56" transform="translate(0 1)" fill="#fff"/>
    <path id="Path_100564" data-name="Path 100564" d="M0,0V28.751H2.339V2.34H54.38V0Z" transform="translate(0 0)" fill="#6db0aa"/>
    <path id="Path_100565" data-name="Path 100565" d="M0,24.308V53.059H54.38V50.72H2.339V24.308Z" transform="translate(0 4.126)" fill="#db8fb5"/>
    <path id="Path_100566" data-name="Path 100566" d="M98.527,24.308V50.72H46.489v2.339h54.378V24.308Z" transform="translate(7.89 4.126)" fill="#8cc5d1"/>
    <path id="Path_100567" data-name="Path 100567" d="M46.489,0V2.34H98.528V28.751h2.339V0Z" transform="translate(7.891 0)" fill="#f2efaa"/>
    <rect id="Rectangle_6921" data-name="Rectangle 6921" width="77.04" height="1.17" transform="translate(15.206 27.683)" fill="#dee4e9"/>
    <rect id="Rectangle_6922" data-name="Rectangle 6922" width="1.17" height="36.925" transform="translate(53.142 9.806)" fill="#dee4e9"/>
    <g id="Group_47562" data-name="Group 47562" transform="translate(0 0)">
      <g id="Group_47561" data-name="Group 47561" clip-path="url(#clip-path)">
        <path id="Path_100568" data-name="Path 100568" d="M24.48,11.987c-.084.211-.084.211-.309.744a15.241,15.241,0,0,1-1.894,3.507,6.047,6.047,0,0,0,.842,1.207,2.049,2.049,0,0,0,.63.5c.056,0,.112-.084.182-.266a8.173,8.173,0,0,0,.267-1.642,4.172,4.172,0,0,0,1.263.94c-.324,1.894-.814,2.722-1.586,2.722-.716,0-1.824-.94-2.638-2.259A12.878,12.878,0,0,1,17.844,19.9a4.67,4.67,0,0,0-1.067-1.22A10.529,10.529,0,0,0,20.552,16.1,17.381,17.381,0,0,1,19.5,10.5H15.15c-.013,1.346-.013,1.346-.028,1.852H17.7a6.133,6.133,0,0,0,1-.056c-.029.253-.056.646-.085,1.192a13.357,13.357,0,0,1-.462,3.859c-.225.561-.73.771-1.81.771-.393,0-.618-.014-1.067-.042a5.246,5.246,0,0,0-.365-1.487,8.554,8.554,0,0,0,1.36.112c.435,0,.563-.084.632-.435a15.112,15.112,0,0,0,.211-2.539H15.066a21.561,21.561,0,0,1-.435,3.522,7.58,7.58,0,0,1-1.15,2.735,5.143,5.143,0,0,0-1.22-1.192,6.541,6.541,0,0,0,.967-2.217,26.35,26.35,0,0,0,.421-5.541,13.889,13.889,0,0,0-.084-1.993c.505.043,1.081.071,1.81.071h4.068C19.43,9,19.43,8.635,19.4,8.017a4.434,4.434,0,0,0-.069-.883H21a11.578,11.578,0,0,0-.069,1.332v.646h1.852a6.632,6.632,0,0,0-1.235-1.291l1.081-.687a7.806,7.806,0,0,1,1.417,1.473l-.729.505h.42a7.931,7.931,0,0,0,1.488-.084v1.543c-.464-.042-1-.07-1.712-.07H20.987a18.953,18.953,0,0,0,.645,4.195,9.711,9.711,0,0,0,1.348-3.283Z" transform="translate(2.081 1.211)" fill="#6db0aa"/>
        <path id="Path_100569" data-name="Path 100569" d="M27.591,13.247a14.138,14.138,0,0,0-1.7.07,10.964,10.964,0,0,0,.069-1.6V8.968a9.782,9.782,0,0,0-.069-1.487,12.627,12.627,0,0,0,1.669.07h6.65a13.164,13.164,0,0,0,1.683-.07,10.314,10.314,0,0,0-.07,1.6v2.638a10.449,10.449,0,0,0,.07,1.6,13.879,13.879,0,0,0-1.7-.07H31.533v.786h4.04a10.732,10.732,0,0,0,1.6-.085v1.558a12.852,12.852,0,0,0-1.585-.084H32.516a7.429,7.429,0,0,0,1.922,1.529,11.058,11.058,0,0,0,3.03,1.221,7.391,7.391,0,0,0-.814,1.487,11.259,11.259,0,0,1-5.148-3.438c0,.184,0,.184.014.463.014.211.014.393.014.547v1.221a9.523,9.523,0,0,0,.1,1.529H29.92a7.663,7.663,0,0,0,.1-1.516v-1.22c.015-.547.015-.547.042-.967a11.682,11.682,0,0,1-2.215,2,13.778,13.778,0,0,1-2.694,1.446,6.145,6.145,0,0,0-.842-1.446,11.38,11.38,0,0,0,2.75-1.22,7.39,7.39,0,0,0,1.908-1.641H26.147a12.164,12.164,0,0,0-1.572.084V13.947a8.844,8.844,0,0,0,1.572.085h3.871v-.786Zm-.112-3.423h2.538V8.871H27.479Zm0,2.16h2.538V11.03H27.479Zm4.054-2.16h2.792V8.871H31.533Zm0,2.16h2.792V11.03H31.533Z" transform="translate(4.126 1.27)" fill="#6db0aa"/>
        <path id="Path_100570" data-name="Path 100570" d="M56.573,9.445a6.824,6.824,0,0,0,1.193.085h3.605a6.959,6.959,0,0,0,1.192-.07v1.4a8.451,8.451,0,0,0-1.192-.056H57.752a7.834,7.834,0,0,0-1.179.07Zm.59-1.95a6.806,6.806,0,0,0,1.206.07H60.8a6.808,6.808,0,0,0,1.191-.07V8.87A9.668,9.668,0,0,0,60.8,8.814H58.369a9.8,9.8,0,0,0-1.206.056ZM58.65,20.052H57.163a9.534,9.534,0,0,0,.07-1.348V16.586a8.759,8.759,0,0,0-.056-1.094,7.973,7.973,0,0,0,.983.042h3.016a7.591,7.591,0,0,0,.911-.042,7.765,7.765,0,0,0-.056,1.08v2.062a7.4,7.4,0,0,0,.071,1.221H60.6V19.42H58.65Zm-1.474-8.558a7.924,7.924,0,0,0,.926.041h2.973a5.341,5.341,0,0,0,.9-.041v1.332a5.545,5.545,0,0,0-.9-.042H58.1a5.838,5.838,0,0,0-.926.042Zm0,1.991a6.853,6.853,0,0,0,.926.043h2.973a5.056,5.056,0,0,0,.9-.043v1.333a7.693,7.693,0,0,0-.925-.042H58.088a7.768,7.768,0,0,0-.911.042Zm1.445,4.686h1.992V16.81H58.621Zm6.5-9.343a9.494,9.494,0,0,0-.1-1.683h1.753a10.807,10.807,0,0,0-.1,1.683v2.538h1a13.669,13.669,0,0,0,1.7-.083V12.9a15.676,15.676,0,0,0-1.711-.084h-.983v5.121a16.681,16.681,0,0,0,.1,2.118H65.018a15.768,15.768,0,0,0,.1-2.118V12.812h-.869a15.7,15.7,0,0,0-1.712.084V11.284a13.682,13.682,0,0,0,1.7.083h.884Z" transform="translate(9.602 1.212)" fill="#e2e100"/>
        <path id="Path_100571" data-name="Path 100571" d="M70.264,8.844a16.936,16.936,0,0,0-1.727.084V7.384a14.929,14.929,0,0,0,1.7.085h9.26a16.2,16.2,0,0,0,1.725-.085V8.928a16.435,16.435,0,0,0-1.711-.084H75.552v1.248h1.669a8.791,8.791,0,0,0,1.15-.055,7.389,7.389,0,0,0-.056,1.052V16.11a6.611,6.611,0,0,0,.056,1.039,9.024,9.024,0,0,0-1.234-.056H72.605a9.262,9.262,0,0,0-1.263.056A6.8,6.8,0,0,0,71.4,16.11V11.089a7.591,7.591,0,0,0-.056-1.052,8.822,8.822,0,0,0,1.151.055H74.12V8.844ZM80.9,10.3a15.055,15.055,0,0,0-.084,1.571v6.285a15.478,15.478,0,0,0,.1,1.881H79.283v-.66H70.431v.66h-1.6a18.4,18.4,0,0,0,.084-1.866V11.861a13.736,13.736,0,0,0-.084-1.558H70.46a8.789,8.789,0,0,0-.057,1.249v6.467h8.923v-6.5a7.215,7.215,0,0,0-.07-1.221ZM72.76,12.87h1.36V11.4H72.76Zm0,2.975h1.36V14.133H72.76Zm2.792-2.975h1.417V11.4H75.552Zm0,2.975h1.417V14.133H75.552Z" transform="translate(11.633 1.253)" fill="#e2e100"/>
        <path id="Path_100572" data-name="Path 100572" d="M14.2,36.281a5.054,5.054,0,0,0-.841.056v-1c-.17.084-.226.112-.449.211a3.686,3.686,0,0,0-.646-1.221c1.081-.308,1.557-.645,1.753-1.262h-.462a8.366,8.366,0,0,0-1.053.056V31.792a7.33,7.33,0,0,0,1.08.056h1.67v-.674H14.114a9.887,9.887,0,0,0-1,.042v-1.29A6.453,6.453,0,0,0,14.2,30h1.053v-.211a3.556,3.556,0,0,0-.071-.758h1.5a3.331,3.331,0,0,0-.068.744V30h.953a5.221,5.221,0,0,0,1.137-.07v1.29a9.765,9.765,0,0,0-.983-.042H16.611v.674h1.346a10.333,10.333,0,0,0,1.053-.042v1.3a9.505,9.505,0,0,0-1.024-.042H17.65v.6c0,.14.041.168.251.168.365,0,.392-.042.435-.618a3.413,3.413,0,0,0,1.024.295c-.142,1.067-.365,1.248-1.528,1.248-.857,0-1.137-.1-1.291-.463-.014.24-.028.393-.028.73v.084h1.122a6.329,6.329,0,0,0,.856-.042v1.249a7.011,7.011,0,0,0-.87-.042H16.513v.729c.687-.084,1.08-.14,2.132-.295v.842a4.489,4.489,0,0,0,1.443-2.034c-.35-.393-.477-.533-.969-1.025l.842-1.108.547.576a8.8,8.8,0,0,0,.113-1.418h-.309a4.688,4.688,0,0,0-.926.07V31.1a5.732,5.732,0,0,0,.926.056h.337v-.8a6.868,6.868,0,0,0-.085-1.262h1.572a8.869,8.869,0,0,0-.085,1.164c-.013.365-.013.533-.027.9h.814a7.508,7.508,0,0,0,1.179-.07c-.029.281-.057.758-.057,1.249a34.422,34.422,0,0,0,.237,3.745,1.817,1.817,0,0,0,.239.785,4.849,4.849,0,0,0,.253-1.963,3.779,3.779,0,0,0,1.009.574c-.2,2.189-.546,3.031-1.275,3.031-.535,0-.983-.491-1.276-1.432a15.582,15.582,0,0,1-.506-4.532h-.687a12.619,12.619,0,0,1-.352,2.624,12.626,12.626,0,0,1,1.137,1.5l-.9,1.235c-.393-.618-.545-.855-.8-1.206a6.2,6.2,0,0,1-1.81,2.328,5.834,5.834,0,0,0-.9-1.094c-1.559.281-1.559.281-3.226.491-1.572.211-2.006.266-2.3.336l-.267-1.487h.182a1.911,1.911,0,0,0,.225.014c.42,0,1.234-.056,2.287-.154v-.855Zm-1.7,4.755a5.907,5.907,0,0,0,1.838-2.273l1.29.646a8.219,8.219,0,0,1-1.852,2.61Zm2.736-6.018a4.588,4.588,0,0,0-.057-.869h1.333V33.068H15.334A3.074,3.074,0,0,1,13.8,35.1a3.311,3.311,0,0,0,.407.014h1.025Zm1.415,6.9a12.254,12.254,0,0,0-.2-2.638l1.4-.14a13.007,13.007,0,0,1,.324,2.652Zm3.326.014a9.888,9.888,0,0,0-.716-2.6l1.39-.295a11.488,11.488,0,0,1,.828,2.539Zm3.886.042a12.636,12.636,0,0,0-1.8-2.708l1.249-.6a15.135,15.135,0,0,1,1.965,2.511Z" transform="translate(2.081 4.927)" fill="#db8fb5"/>
        <path id="Path_100573" data-name="Path 100573" d="M24.345,40.966A6.471,6.471,0,0,0,25.889,38.5l1.36.561a9.463,9.463,0,0,1-1.613,2.792ZM30,29.827a4.823,4.823,0,0,0-.083-.883h1.738a4.4,4.4,0,0,0-.083.883v.126h3.31a10.239,10.239,0,0,0,1.488-.084v1.362a13.889,13.889,0,0,0-1.5-.056h-.786a8.8,8.8,0,0,1-.406.827h1.908a11.384,11.384,0,0,0,1.6-.069v1.36a11.386,11.386,0,0,0-1.613-.07H26.2a11.509,11.509,0,0,0-1.613.07v-1.36A12.566,12.566,0,0,0,26.253,32h1.753c-.125-.309-.2-.462-.378-.827h-.759a12.545,12.545,0,0,0-1.443.056V29.869a10.078,10.078,0,0,0,1.487.084H30ZM27.446,38.2c-.6,0-.983.015-1.376.043a6.8,6.8,0,0,0,.057-1.053V34.976a10.045,10.045,0,0,0-.057-1.248c.393.028.758.041,1.516.041H34.11c.841,0,1.136-.013,1.529-.041a8.813,8.813,0,0,0-.056,1.248v2.09a10.129,10.129,0,0,0,.056,1.179c-.182-.015-.2-.015-.477-.028H34.8c-.168-.015-.295-.015-.392-.015H31.22a11.806,11.806,0,0,1,1.39,1.109l-1.165.911a8.686,8.686,0,0,0-1.586-1.5l.688-.519Zm.14-2.735h6.538v-.576H27.586Zm0,1.613h6.538v-.576H27.586Zm1.668,3.2c0,.168.043.225.226.267a7.271,7.271,0,0,0,1.206.084c1.628,0,2.077-.056,2.217-.266a2.663,2.663,0,0,0,.14-1.151,4.622,4.622,0,0,0,1.445.379c-.042,1.052-.154,1.5-.407,1.781-.392.421-.967.5-3.395.5s-2.9-.153-2.9-.981V39.662a5.2,5.2,0,0,0-.071-1.039h1.614a5.375,5.375,0,0,0-.071,1.039ZM32.089,32a7.54,7.54,0,0,0,.407-.827h-3.31a8.078,8.078,0,0,1,.364.827ZM36.1,41.682a15.189,15.189,0,0,0-1.923-2.638l1.235-.7a17.2,17.2,0,0,1,1.95,2.454Z" transform="translate(4.132 4.912)" fill="#db8fb5"/>
        <path id="Path_100574" data-name="Path 100574" d="M59.29,40.379a15.3,15.3,0,0,0,.069,1.628H57.746a14.178,14.178,0,0,0,.085-1.641V36.184c0-.49,0-.532.042-1.557a8.477,8.477,0,0,1-1.039,1.515,8.759,8.759,0,0,0-.646-1.668,10.391,10.391,0,0,0,2.134-3.606,8.6,8.6,0,0,0,.518-1.936l1.543.533c-.042.139-.14.421-.281.841a14.952,14.952,0,0,1-.813,2.062Zm.743-8.865a7,7,0,0,0,1.165.07h6.831a8.547,8.547,0,0,0,1.319-.084v1.445a11.5,11.5,0,0,0-1.319-.07H61.2a7.422,7.422,0,0,0-1.165.07Zm2.176,10.508H60.692a11.233,11.233,0,0,0,.07-1.3V38.738a10.235,10.235,0,0,0-.056-1.206c.295.028.674.042,1.151.042h5.316c.547,0,.884-.014,1.192-.042a9.584,9.584,0,0,0-.055,1.192v1.965a9.364,9.364,0,0,0,.069,1.318H66.837v-.646H62.208Zm6.1-7.127a7.941,7.941,0,0,0-1.095-.056H61.842a6.465,6.465,0,0,0-1,.056V33.562a6.117,6.117,0,0,0,1,.056H67.2a8.432,8.432,0,0,0,1.109-.056Zm0,1.978a8.116,8.116,0,0,0-1.081-.056H61.842a6.007,6.007,0,0,0-1,.056V35.54a6.237,6.237,0,0,0,1,.056h5.374a8.083,8.083,0,0,0,1.095-.056Zm0-5.99a12.333,12.333,0,0,0-1.376-.056H62.208a10.062,10.062,0,0,0-1.263.056V29.536a9.526,9.526,0,0,0,1.388.084h4.489a9.988,9.988,0,0,0,1.488-.084Zm-1.474,7.982H62.208v1.178h4.629Z" transform="translate(9.537 4.91)" fill="#8cc5d1"/>
        <path id="Path_100575" data-name="Path 100575" d="M74.693,31.764c-.337-.028-.632-.043-1.192-.043H72.35v.926h.926a8.138,8.138,0,0,0,1.164-.056,7.735,7.735,0,0,0-.042,1.123v1.866a10.656,10.656,0,0,0,.042,1.136c-.351-.027-.574-.042-1.136-.042h-.618a7.157,7.157,0,0,0,2.1,1.908,4.887,4.887,0,0,0-.744,1.249c-.125-.126-.125-.126-.546-.505a7.672,7.672,0,0,1-1.207-1.374c.042.645.056,1.108.056,1.627v.939a7.077,7.077,0,0,0,.084,1.432h-1.5A9.276,9.276,0,0,0,71,40.517v-.883c0-.505.013-.94.042-1.515a9.472,9.472,0,0,1-2.118,2.721,3.676,3.676,0,0,0-.786-1.318,8.944,8.944,0,0,0,2.511-2.848H70.1c-.574,0-.771.015-1.178.042a10.54,10.54,0,0,0,.056-1.276V33.826a10.248,10.248,0,0,0-.056-1.235,10.676,10.676,0,0,0,1.36.056H71V31.72h-.94a14.069,14.069,0,0,0-1.529.057V30.305a10.617,10.617,0,0,0,1.529.069H71a6.956,6.956,0,0,0-.07-1.262h1.488a5.742,5.742,0,0,0-.071,1.164v.1h1.164a9.855,9.855,0,0,0,1.109-.042v-.925a10.239,10.239,0,0,0,1.488.084h3.661a10,10,0,0,0,1.515-.07v1.487a10.308,10.308,0,0,0-1.515-.07H78.733c-.14.421-.253.73-.393,1.052h1.108c.744,0,1.025-.013,1.363-.042-.029.38-.043.8-.043,1.333v4.63c0,.546.014,1.052.043,1.445-.478-.028-.786-.042-1.193-.042h-.393a5.6,5.6,0,0,0,2.455,1.7,4.33,4.33,0,0,0-.94,1.165,9.192,9.192,0,0,1-2.6-2.09l.926-.772h-2.6l1,.786a7.226,7.226,0,0,1-2.862,2.076,3.739,3.739,0,0,0-.869-1.151,5.839,5.839,0,0,0,2-1.08,4.5,4.5,0,0,0,.6-.632h-.2c-.462,0-.813.014-1.094.042.028-.435.028-.674.028-1.276V33.166c0-.632-.014-.912-.042-1.3.323.014.576.027,1.192.027h.632a8.255,8.255,0,0,0,.379-1.052H75.7a8.535,8.535,0,0,0-1.009.042Zm-4.433,3.647H71v-1.5h-.744Zm2.09,0h.786v-1.5H72.35Zm4.112-1.459h2.917v-.8H76.461Zm0,1.964h2.917V35.1H76.461Zm0,2.02h2.917v-.87H76.461Z" transform="translate(11.566 4.941)" fill="#8cc5d1"/>
      </g>
    </g>
  </g>
</svg>
