<svg id="Group_47503" data-name="Group 47503" xmlns="http://www.w3.org/2000/svg" xmlns:xlink="http://www.w3.org/1999/xlink" width="134.974" height="60.8" viewBox="0 0 134.974 60.8">
  <defs>
    <clipPath id="clip-path">
      <rect id="Rectangle_6860" data-name="Rectangle 6860" width="134.974" height="60.8" fill="none"/>
    </clipPath>
    <clipPath id="clip-path-3">
      <rect id="Rectangle_6851" data-name="Rectangle 6851" width="14.796" height="12.814" fill="none"/>
    </clipPath>
  </defs>
  <g id="Group_47502" data-name="Group 47502" clip-path="url(#clip-path)">
    <g id="Group_47501" data-name="Group 47501" transform="translate(0 0)">
      <g id="Group_47500" data-name="Group 47500" clip-path="url(#clip-path)">
        <path id="Path_100244" data-name="Path 100244" d="M72.56,60.745H2.856A2.856,2.856,0,0,1,0,57.889V3.135A2.856,2.856,0,0,1,2.856.279h69.7a2.856,2.856,0,0,1,2.856,2.856V57.889a2.856,2.856,0,0,1-2.856,2.856" transform="translate(0 0.054)" fill="#fff"/>
        <rect id="Rectangle_6813" data-name="Rectangle 6813" width="65.97" height="9.537" transform="translate(4.229 9.269)" fill="#fff" stroke="#d5e8f8" stroke-width="1"/>
        <rect id="Rectangle_6814" data-name="Rectangle 6814" width="49.046" height="9.537" transform="translate(12.691 9.269)" fill="#419eb7"/>
        <rect id="Rectangle_6815" data-name="Rectangle 6815" width="5.29" height="5.29" transform="translate(22.062 11.393)" fill="#fff"/>
        <rect id="Rectangle_6816" data-name="Rectangle 6816" width="5.29" height="5.29" transform="translate(28.316 11.393)" fill="#fff"/>
        <rect id="Rectangle_6817" data-name="Rectangle 6817" width="5.29" height="5.29" transform="translate(34.57 11.393)" fill="#efd9e4"/>
        <rect id="Rectangle_6818" data-name="Rectangle 6818" width="5.29" height="5.29" transform="translate(40.823 11.393)" fill="#fff"/>
        <rect id="Rectangle_6819" data-name="Rectangle 6819" width="5.29" height="5.29" transform="translate(47.076 11.393)" fill="#fff"/>
        <rect id="Rectangle_6820" data-name="Rectangle 6820" width="5.29" height="5.29" transform="translate(53.329 11.393)" fill="#fff"/>
        <rect id="Rectangle_6821" data-name="Rectangle 6821" width="5.29" height="5.29" transform="translate(15.809 11.393)" fill="#fff"/>
        <rect id="Rectangle_6822" data-name="Rectangle 6822" width="65.97" height="9.537" transform="translate(4.229 21.987)" fill="#fff" stroke="#d5e8f8" stroke-width="1"/>
        <rect id="Rectangle_6823" data-name="Rectangle 6823" width="49.046" height="9.537" transform="translate(12.691 21.987)" fill="#419eb7"/>
        <rect id="Rectangle_6824" data-name="Rectangle 6824" width="5.29" height="5.29" transform="translate(22.062 24.11)" fill="#fff"/>
        <rect id="Rectangle_6825" data-name="Rectangle 6825" width="5.29" height="5.29" transform="translate(28.316 24.11)" fill="#fff"/>
        <rect id="Rectangle_6826" data-name="Rectangle 6826" width="5.29" height="5.29" transform="translate(34.57 24.11)" fill="#efd9e4"/>
        <rect id="Rectangle_6827" data-name="Rectangle 6827" width="5.29" height="5.29" transform="translate(40.823 24.11)" fill="#fff"/>
        <rect id="Rectangle_6828" data-name="Rectangle 6828" width="5.29" height="5.29" transform="translate(47.076 24.11)" fill="#fff"/>
        <rect id="Rectangle_6829" data-name="Rectangle 6829" width="5.29" height="5.29" transform="translate(53.329 24.11)" fill="#fff"/>
        <rect id="Rectangle_6830" data-name="Rectangle 6830" width="5.29" height="5.29" transform="translate(15.809 24.11)" fill="#fff"/>
        <rect id="Rectangle_6831" data-name="Rectangle 6831" width="65.97" height="9.537" transform="translate(4.229 34.703)" fill="#fff" stroke="#d5e8f8" stroke-width="1"/>
        <rect id="Rectangle_6832" data-name="Rectangle 6832" width="49.046" height="9.537" transform="translate(12.691 34.703)" fill="#419eb7"/>
        <rect id="Rectangle_6833" data-name="Rectangle 6833" width="5.29" height="5.29" transform="translate(22.062 36.827)" fill="#fff"/>
        <rect id="Rectangle_6834" data-name="Rectangle 6834" width="5.29" height="5.29" transform="translate(28.316 36.827)" fill="#fff"/>
        <rect id="Rectangle_6835" data-name="Rectangle 6835" width="5.29" height="5.29" transform="translate(34.57 36.827)" fill="#efd9e4"/>
        <rect id="Rectangle_6836" data-name="Rectangle 6836" width="5.29" height="5.29" transform="translate(40.823 36.827)" fill="#fff"/>
        <rect id="Rectangle_6837" data-name="Rectangle 6837" width="5.29" height="5.29" transform="translate(47.076 36.827)" fill="#fff"/>
        <rect id="Rectangle_6838" data-name="Rectangle 6838" width="5.29" height="5.29" transform="translate(53.329 36.827)" fill="#fff"/>
        <rect id="Rectangle_6839" data-name="Rectangle 6839" width="5.29" height="5.29" transform="translate(15.809 36.827)" fill="#fff"/>
        <path id="Path_100245" data-name="Path 100245" d="M47.636,12.118a.935.935,0,1,0-.936.936.936.936,0,0,0,.936-.936" transform="translate(8.922 2.179)" fill="#d54086"/>
        <path id="Path_100246" data-name="Path 100246" d="M37.17,11.9a.935.935,0,1,0-.936.936.936.936,0,0,0,.936-.936" transform="translate(6.881 2.137)" fill="#d6d73b"/>
        <path id="Path_100247" data-name="Path 100247" d="M26.7,22.435a.935.935,0,1,0-.936.936.936.936,0,0,0,.936-.936" transform="translate(4.841 4.191)" fill="#d54086"/>
        <path id="Path_100248" data-name="Path 100248" d="M21.47,22.435a.935.935,0,1,0-.936.936.936.936,0,0,0,.936-.936" transform="translate(3.821 4.191)" fill="#d6d73b"/>
        <path id="Path_100249" data-name="Path 100249" d="M42.4,33.578a.935.935,0,1,0-.936.936.936.936,0,0,0,.936-.936" transform="translate(7.901 6.363)" fill="#d54086"/>
        <path id="Path_100250" data-name="Path 100250" d="M47.418,33.578a.935.935,0,1,0-.936.936.936.936,0,0,0,.936-.936" transform="translate(8.879 6.363)" fill="#d6d73b"/>
        <rect id="Rectangle_6840" data-name="Rectangle 6840" width="65.97" height="9.537" transform="translate(4.229 47.517)" fill="#fff" stroke="#d5e8f8" stroke-width="1"/>
        <rect id="Rectangle_6841" data-name="Rectangle 6841" width="49.046" height="9.537" transform="translate(12.691 47.517)" fill="#419eb7"/>
        <rect id="Rectangle_6842" data-name="Rectangle 6842" width="5.29" height="5.29" transform="translate(22.062 49.64)" fill="#fff"/>
        <rect id="Rectangle_6843" data-name="Rectangle 6843" width="5.29" height="5.29" transform="translate(28.316 49.64)" fill="#fff"/>
        <rect id="Rectangle_6844" data-name="Rectangle 6844" width="5.29" height="5.29" transform="translate(34.57 49.64)" fill="#efd9e4"/>
        <rect id="Rectangle_6845" data-name="Rectangle 6845" width="5.29" height="5.29" transform="translate(40.823 49.64)" fill="#fff"/>
        <rect id="Rectangle_6846" data-name="Rectangle 6846" width="5.29" height="5.29" transform="translate(47.076 49.64)" fill="#fff"/>
        <rect id="Rectangle_6847" data-name="Rectangle 6847" width="5.29" height="5.29" transform="translate(53.329 49.64)" fill="#fff"/>
        <rect id="Rectangle_6848" data-name="Rectangle 6848" width="5.29" height="5.29" transform="translate(15.809 49.64)" fill="#fff"/>
        <path id="Path_100251" data-name="Path 100251" d="M42.7,43.909a.935.935,0,1,0-.936.936.936.936,0,0,0,.936-.936" transform="translate(7.959 8.377)" fill="#d54086"/>
        <path id="Path_100252" data-name="Path 100252" d="M21.765,43.909a.935.935,0,1,0-.936.936.936.936,0,0,0,.936-.936" transform="translate(3.878 8.377)" fill="#d6d73b"/>
        <path id="Path_100253" data-name="Path 100253" d="M75.416,5.239H0v-2.1A2.856,2.856,0,0,1,2.856.279h69.7a2.856,2.856,0,0,1,2.856,2.856Z" transform="translate(0 0.054)" fill="#419eb7"/>
        <path id="Path_100254" data-name="Path 100254" d="M119.259,35.222H68.816a2.856,2.856,0,0,1-2.856-2.856V2.856A2.856,2.856,0,0,1,68.816,0h50.443a2.856,2.856,0,0,1,2.856,2.856v29.51a2.856,2.856,0,0,1-2.856,2.856" transform="translate(12.858 0)" fill="#fff"/>
        <rect id="Rectangle_6849" data-name="Rectangle 6849" width="28.598" height="22.399" transform="translate(101.121 9.119)" fill="#fff"/>
        <path id="Path_100255" data-name="Path 100255" d="M109.164,27.433H87.571l10.8-18.7Zm-20.558-.6h19.523L98.367,9.928Z" transform="translate(17.071 1.702)" fill="#ccc"/>
        <rect id="Rectangle_6850" data-name="Rectangle 6850" width="0.597" height="10.343" transform="translate(115.14 11.033)" fill="#ccc"/>
        <path id="Path_100256" data-name="Path 100256" d="M88.208,25.63l-.351-.483,10.279-7.46.351.483Z" transform="translate(17.127 3.448)" fill="#ccc"/>
        <path id="Path_100257" data-name="Path 100257" d="M106.738,25.63,96.459,18.17l.351-.483,10.279,7.46Z" transform="translate(18.804 3.448)" fill="#ccc"/>
        <g id="Group_47499" data-name="Group 47499" transform="translate(108.04 14.068)" opacity="0.52">
          <g id="Group_47498" data-name="Group 47498">
            <g id="Group_47497" data-name="Group 47497" clip-path="url(#clip-path-3)">
              <path id="Path_100258" data-name="Path 100258" d="M97.728,12.273l-6.88,11.918h13.761Z" transform="translate(-90.33 -11.675)" fill="#f3d2d3"/>
              <path id="Path_100259" data-name="Path 100259" d="M105.212,24.588h-14.8l7.4-12.815Zm-13.762-.6h12.726L97.813,12.968Z" transform="translate(-90.414 -11.773)" fill="#d54086"/>
            </g>
          </g>
        </g>
        <rect id="Rectangle_6852" data-name="Rectangle 6852" width="13.841" height="5.363" transform="translate(84.075 9.374)" fill="#f3d2d3"/>
        <path id="Path_100260" data-name="Path 100260" d="M84.547,13.555H70.109V7.595H84.547Zm-13.842-.6H83.949V8.192H70.705Z" transform="translate(13.667 1.48)" fill="#d54086"/>
        <rect id="Rectangle_6853" data-name="Rectangle 6853" width="13.841" height="5.363" transform="translate(84.174 17.682)" fill="#fef8bc"/>
        <path id="Path_100261" data-name="Path 100261" d="M84.63,20.507H70.192v-5.96H84.63Zm-13.841-.6H84.033V15.144H70.789Z" transform="translate(13.683 2.835)" fill="#d6d73b"/>
        <rect id="Rectangle_6854" data-name="Rectangle 6854" width="13.841" height="5.363" transform="translate(84.075 26.155)" fill="#e4f2f7"/>
        <path id="Path_100262" data-name="Path 100262" d="M84.547,27.6H70.109v-5.96H84.547ZM70.705,27H83.949V22.235H70.705Z" transform="translate(13.667 4.218)" fill="#419eb7"/>
        <path id="Path_100263" data-name="Path 100263" d="M122.116,4.96H65.961v-2.1A2.856,2.856,0,0,1,68.817,0H119.26a2.856,2.856,0,0,1,2.856,2.856Z" transform="translate(12.858 0)" fill="#419eb7"/>
        <path id="Path_100264" data-name="Path 100264" d="M118.987,54.585H68.544a2.856,2.856,0,0,1-2.856-2.856v-17a2.857,2.857,0,0,1,2.856-2.856h50.443a2.857,2.857,0,0,1,2.856,2.856v17a2.856,2.856,0,0,1-2.856,2.856" transform="translate(12.805 6.214)" fill="#fff"/>
        <path id="Path_100265" data-name="Path 100265" d="M121.843,36.838H65.688v-2.1a2.856,2.856,0,0,1,2.856-2.856h50.443a2.856,2.856,0,0,1,2.856,2.856Z" transform="translate(12.805 6.214)" fill="#419eb7"/>
        <rect id="Rectangle_6855" data-name="Rectangle 6855" width="21.203" height="4.61" transform="translate(84.174 46.394)" fill="#fff"/>
        <path id="Path_100266" data-name="Path 100266" d="M91.992,43.783h-21.8V38.575h21.8Zm-21.2-.6H91.4V39.172H70.789Z" transform="translate(13.683 7.519)" fill="#419eb7"/>
        <rect id="Rectangle_6856" data-name="Rectangle 6856" width="21.203" height="4.61" transform="translate(84.174 52.71)" fill="#fff"/>
        <path id="Path_100267" data-name="Path 100267" d="M91.992,49.069h-21.8V43.861h21.8Zm-21.2-.6H91.4V44.458H70.789Z" transform="translate(13.683 8.55)" fill="#419eb7"/>
        <rect id="Rectangle_6857" data-name="Rectangle 6857" width="21.203" height="4.61" transform="translate(106.96 46.394)" fill="#fff"/>
        <path id="Path_100268" data-name="Path 100268" d="M111.061,43.783h-21.8V38.575h21.8Zm-21.2-.6h20.606V39.172H89.86Z" transform="translate(17.401 7.519)" fill="#419eb7"/>
        <rect id="Rectangle_6858" data-name="Rectangle 6858" width="21.203" height="4.61" transform="translate(106.96 52.71)" fill="#fff"/>
        <path id="Path_100269" data-name="Path 100269" d="M111.061,49.069h-21.8V43.861h21.8Zm-21.2-.6h20.606V44.458H89.86Z" transform="translate(17.401 8.55)" fill="#419eb7"/>
      </g>
    </g>
  </g>
</svg>
