<svg xmlns="http://www.w3.org/2000/svg" width="104.503" height="44.417" viewBox="0 0 104.503 44.417">
  <g id="Group_47558" data-name="Group 47558" transform="translate(0 5.004)">
    <path id="Path_100550" data-name="Path 100550" d="M29.6,24.683l-1.181-.635L45.17,15.164l1.181.635Z" transform="translate(-10.357 -2.086)" fill="#afafaf"/>
    <rect id="Rectangle_6910" data-name="Rectangle 6910" width="12.324" height="0.92" transform="matrix(0.672, -0.74, 0.74, 0.672, 52.139, 21.979)" fill="#afafaf"/>
    <rect id="Rectangle_6911" data-name="Rectangle 6911" width="10.221" height="0.92" transform="translate(77.165 22.086) rotate(-63.307)" fill="#afafaf"/>
    <rect id="Rectangle_6912" data-name="Rectangle 6912" width="17.605" height="14.035" transform="translate(0.459 21.464)" fill="#4aa5ca"/>
    <rect id="Rectangle_6913" data-name="Rectangle 6913" width="34.417" height="14.035" transform="translate(18.064 21.464)" fill="#d74b8b"/>
    <rect id="Rectangle_6914" data-name="Rectangle 6914" width="26.011" height="14.035" transform="translate(52.481 21.464)" fill="#e1754b"/>
    <rect id="Rectangle_6915" data-name="Rectangle 6915" width="26.01" height="14.035" transform="translate(78.493 21.464)" fill="#e4e04a"/>
    <rect id="Rectangle_6916" data-name="Rectangle 6916" width="35.21" height="14.035" transform="translate(0.459 -0.047)" fill="#4aa5ca"/>
    <rect id="Rectangle_6917" data-name="Rectangle 6917" width="25.091" height="14.035" transform="translate(35.67 -0.047)" fill="#d74b8b"/>
    <rect id="Rectangle_6918" data-name="Rectangle 6918" width="21.411" height="14.035" transform="translate(60.76 -0.047)" fill="#e1754b"/>
    <rect id="Rectangle_6919" data-name="Rectangle 6919" width="22.331" height="14.035" transform="translate(82.172 -0.047)" fill="#e4e04a"/>
    <path id="Path_100812" data-name="Path 100812" d="M0,0H.92V44.417H0Z" transform="translate(0 -5.004)" fill="#afafaf"/>
  </g>
</svg>
