<svg xmlns="http://www.w3.org/2000/svg" xmlns:xlink="http://www.w3.org/1999/xlink" width="108.621" height="57.113" viewBox="0 0 108.621 57.113">
  <defs>
    <clipPath id="clip-path">
      <rect id="Rectangle_6893" data-name="Rectangle 6893" width="108.621" height="57.113" fill="none"/>
    </clipPath>
  </defs>
  <g id="Group_47556" data-name="Group 47556" transform="translate(0 0)">
    <rect id="Rectangle_6927" data-name="Rectangle 6927" width="107" height="56" transform="translate(1.414 0.226)" fill="#fff"/>
    <path id="Path_100536" data-name="Path 100536" d="M0,0V28.715H2.337V2.337H54.311V0Z" fill="#6db0aa"/>
    <path id="Path_100537" data-name="Path 100537" d="M0,24.308V53.023H54.311V50.686H2.337V24.308Z" transform="translate(0 4.09)" fill="#db8fb5"/>
    <path id="Path_100538" data-name="Path 100538" d="M98.462,24.308V50.686H46.489v2.337H100.8V24.308Z" transform="translate(7.822 4.09)" fill="#8cc5d1"/>
    <path id="Path_100539" data-name="Path 100539" d="M46.489,0V2.337H98.462V28.715H100.8V0Z" transform="translate(7.822)" fill="#f2efaa"/>
    <rect id="Rectangle_6891" data-name="Rectangle 6891" width="76.943" height="1.168" transform="translate(15.187 27.648)" fill="#dee4e9"/>
    <rect id="Rectangle_6892" data-name="Rectangle 6892" width="1.168" height="36.878" transform="translate(53.075 9.794)" fill="#dee4e9"/>
    <g id="Group_47555" data-name="Group 47555" transform="translate(0 0)">
      <g id="Group_47554" data-name="Group 47554" clip-path="url(#clip-path)">
        <path id="Path_100540" data-name="Path 100540" d="M25.577,17.915a2.1,2.1,0,1,0-2.1,2.1,2.1,2.1,0,0,0,2.1-2.1" transform="translate(3.596 2.66)" fill="#db8fb5"/>
        <path id="Path_100541" data-name="Path 100541" d="M68.38,32.909a2.126,2.126,0,1,0-2.126,2.126,2.126,2.126,0,0,0,2.126-2.126" transform="translate(10.79 5.179)" fill="#db8fb5"/>
        <path id="Path_100542" data-name="Path 100542" d="M40.521,20.574a2.1,2.1,0,1,0-2.1,2.1,2.1,2.1,0,0,0,2.1-2.1" transform="translate(6.111 3.108)" fill="#f2efaa"/>
        <path id="Path_100543" data-name="Path 100543" d="M53.512,19.735a2.1,2.1,0,1,0-2.1,2.1,2.1,2.1,0,0,0,2.1-2.1" transform="translate(8.297 2.967)" fill="#f2efaa"/>
        <path id="Path_100544" data-name="Path 100544" d="M34.584,33.727a2.1,2.1,0,1,0-2.1,2.1,2.1,2.1,0,0,0,2.1-2.1" transform="translate(5.112 5.321)" fill="#8cc5d1"/>
        <path id="Path_100545" data-name="Path 100545" d="M73.485,24.473A2.126,2.126,0,1,0,71.359,26.6a2.126,2.126,0,0,0,2.126-2.126" transform="translate(11.649 3.76)" fill="#8cc5d1"/>
        <path id="Path_100546" data-name="Path 100546" d="M48.893,13.953a2.1,2.1,0,1,0-2.1,2.1,2.1,2.1,0,0,0,2.1-2.1" transform="translate(7.519 1.994)" fill="#8cc5d1"/>
        <path id="Path_100547" data-name="Path 100547" d="M57.11,27.724a2.1,2.1,0,1,0-2.1,2.1,2.1,2.1,0,0,0,2.1-2.1" transform="translate(8.902 4.311)" fill="#8cc5d1"/>
      </g>
    </g>
  </g>
</svg>
