<svg id="Group_47550" data-name="Group 47550" xmlns="http://www.w3.org/2000/svg" xmlns:xlink="http://www.w3.org/1999/xlink" width="107.271" height="56.256" viewBox="0 0 107.271 56.256">
  <defs>
    <clipPath id="clip-path">
      <rect id="Rectangle_6875" data-name="Rectangle 6875" width="106.992" height="56.256" fill="none"/>
    </clipPath>
  </defs>
  <rect id="Rectangle_6926" data-name="Rectangle 6926" width="107" height="56" transform="translate(0.271)" fill="#fff"/>
  <path id="Path_100524" data-name="Path 100524" d="M0,0V28.284H2.3V2.3H53.5V0Z" transform="translate(0 0)" fill="#6db0aa"/>
  <path id="Path_100525" data-name="Path 100525" d="M0,24.308V52.592H53.5v-2.3H2.3V24.308Z" transform="translate(0 3.664)" fill="#db8fb5"/>
  <path id="Path_100526" data-name="Path 100526" d="M97.683,24.308V50.291H46.489v2.3h53.5V24.308Z" transform="translate(7.008 3.664)" fill="#8cc5d1"/>
  <path id="Path_100527" data-name="Path 100527" d="M46.489,0V2.3H97.683V28.284h2.3V0Z" transform="translate(7.008 0)" fill="#f2efaa"/>
  <rect id="Rectangle_6872" data-name="Rectangle 6872" width="75.789" height="1.151" transform="translate(14.96 27.234)" fill="#dee4e9"/>
  <rect id="Rectangle_6873" data-name="Rectangle 6873" width="1.151" height="36.325" transform="translate(52.279 9.647)" fill="#dee4e9"/>
  <g id="Group_47549" data-name="Group 47549" transform="translate(0 0)">
    <g id="Group_47548" data-name="Group 47548" clip-path="url(#clip-path)">
      <path id="Path_100528" data-name="Path 100528" d="M25.513,17.883a2.07,2.07,0,1,0-2.07,2.07,2.07,2.07,0,0,0,2.07-2.07" transform="translate(3.222 2.383)" fill="#f2efaa"/>
      <path id="Path_100529" data-name="Path 100529" d="M68.317,32.877a2.094,2.094,0,1,0-2.094,2.094,2.095,2.095,0,0,0,2.094-2.094" transform="translate(9.667 4.64)" fill="#f2efaa"/>
      <path id="Path_100530" data-name="Path 100530" d="M40.458,20.542a2.07,2.07,0,1,0-2.07,2.07,2.07,2.07,0,0,0,2.07-2.07" transform="translate(5.474 2.784)" fill="#f2efaa"/>
      <path id="Path_100531" data-name="Path 100531" d="M53.449,19.7a2.07,2.07,0,1,0-2.07,2.07,2.07,2.07,0,0,0,2.07-2.07" transform="translate(7.433 2.658)" fill="#f2efaa"/>
      <path id="Path_100532" data-name="Path 100532" d="M34.521,33.7a2.07,2.07,0,1,0-2.07,2.07,2.07,2.07,0,0,0,2.07-2.07" transform="translate(4.58 4.767)" fill="#f2efaa"/>
      <path id="Path_100533" data-name="Path 100533" d="M73.422,24.441a2.094,2.094,0,1,0-2.094,2.094,2.095,2.095,0,0,0,2.094-2.094" transform="translate(10.436 3.368)" fill="#f2efaa"/>
      <path id="Path_100534" data-name="Path 100534" d="M48.83,13.921a2.07,2.07,0,1,0-2.07,2.07,2.07,2.07,0,0,0,2.07-2.07" transform="translate(6.736 1.786)" fill="#f2efaa"/>
      <path id="Path_100535" data-name="Path 100535" d="M57.047,27.692a2.07,2.07,0,1,0-2.07,2.07,2.07,2.07,0,0,0,2.07-2.07" transform="translate(7.975 3.862)" fill="#f2efaa"/>
      <rect id="Rectangle_6874" data-name="Rectangle 6874" width="6.026" height="6.026" transform="matrix(0.707, -0.707, 0.707, 0.707, 67.366, 18.197)" fill="#e73e8f"/>
    </g>
  </g>
</svg>
