<svg xmlns="http://www.w3.org/2000/svg" xmlns:xlink="http://www.w3.org/1999/xlink" width="134.444" height="52.384" viewBox="0 0 134.444 52.384">
  <defs>
    <clipPath id="clip-path">
      <rect id="Rectangle_6924" data-name="Rectangle 6924" width="134.444" height="52.384" fill="none"/>
    </clipPath>
  </defs>
  <g id="Group_47565" data-name="Group 47565" transform="translate(0 0)">
    <g id="Group_47564" data-name="Group 47564" transform="translate(0 0)" clip-path="url(#clip-path)">
      <path id="Path_100576" data-name="Path 100576" d="M131.6,52.384H2.841A2.841,2.841,0,0,1,0,49.543V2.841A2.841,2.841,0,0,1,2.841,0H131.6a2.841,2.841,0,0,1,2.841,2.841v46.7a2.841,2.841,0,0,1-2.841,2.841" transform="translate(0 0)" fill="#e7f2f6"/>
      <path id="Path_100577" data-name="Path 100577" d="M38.68,45.325H7.614a2.841,2.841,0,0,1-2.841-2.841V9.7A2.841,2.841,0,0,1,7.614,6.858H38.68A2.841,2.841,0,0,1,41.521,9.7V42.484a2.841,2.841,0,0,1-2.841,2.841" transform="translate(0.901 1.295)" fill="#fff"/>
      <path id="Path_100578" data-name="Path 100578" d="M75,45.325H43.932a2.841,2.841,0,0,1-2.841-2.841V9.7a2.841,2.841,0,0,1,2.841-2.841H75A2.841,2.841,0,0,1,77.839,9.7V42.484A2.841,2.841,0,0,1,75,45.325" transform="translate(7.756 1.295)" fill="#fff"/>
      <path id="Path_100579" data-name="Path 100579" d="M110.8,45.325H79.731a2.841,2.841,0,0,1-2.841-2.841V9.7a2.841,2.841,0,0,1,2.841-2.841H110.8A2.841,2.841,0,0,1,113.638,9.7V42.484a2.841,2.841,0,0,1-2.841,2.841" transform="translate(14.514 1.295)" fill="#fff"/>
      <path id="Path_100580" data-name="Path 100580" d="M41.521,12.96H4.773V9.7A2.841,2.841,0,0,1,7.614,6.858H38.679A2.842,2.842,0,0,1,41.521,9.7Z" transform="translate(0.901 1.295)" fill="#5ca5bf"/>
      <path id="Path_100581" data-name="Path 100581" d="M77.839,12.96H41.091V9.7a2.841,2.841,0,0,1,2.841-2.841H75A2.841,2.841,0,0,1,77.839,9.7Z" transform="translate(7.756 1.295)" fill="#5ca5bf"/>
      <path id="Path_100582" data-name="Path 100582" d="M113.638,12.96H76.89V9.7a2.841,2.841,0,0,1,2.841-2.841H110.8A2.841,2.841,0,0,1,113.638,9.7Z" transform="translate(14.514 1.295)" fill="#5ca5bf"/>
      <path id="Path_100583" data-name="Path 100583" d="M20.624,28.371a9.887,9.887,0,0,0-1.308-.092h-.471v.928a8.142,8.142,0,0,0,.1,1.491H17.093a8.347,8.347,0,0,0,.1-1.518v-.9H13.575c-.772,0-1.19.012-1.635.051V26.723c.445-.483.59-.654,1.046-1.2l3.1-3.792a12.549,12.549,0,0,0,1.085-1.438h1.765a18.394,18.394,0,0,0-.092,2.21v4.29H19.3a8.606,8.606,0,0,0,1.321-.093Zm-3.413-4.277a14.8,14.8,0,0,1,.065-1.569c-.262.379-.418.588-.889,1.164L13.875,26.8h3.336Z" transform="translate(2.254 3.83)" fill="#777"/>
      <path id="Path_100584" data-name="Path 100584" d="M21.829,27.9a1.692,1.692,0,0,0,.615,1.071,2.47,2.47,0,0,0,1.582.511c1.3,0,2.118-.667,2.118-1.7a1.526,1.526,0,0,0-.732-1.373,3.4,3.4,0,0,0-1.5-.314,11.166,11.166,0,0,0-1.4.065V24.537a8.946,8.946,0,0,0,1.268.067c1.308,0,2.079-.6,2.079-1.61,0-.9-.615-1.412-1.726-1.412a2.187,2.187,0,0,0-1.425.4,1.93,1.93,0,0,0-.549,1.008l-1.87-.314a3.249,3.249,0,0,1,1.242-1.87,4.246,4.246,0,0,1,2.563-.719c2.184,0,3.6,1.1,3.6,2.8a2.382,2.382,0,0,1-.9,1.922,3.2,3.2,0,0,1-1.267.51,2.759,2.759,0,0,1,1.87.876A2.515,2.515,0,0,1,28.015,28a2.76,2.76,0,0,1-.786,1.908,4.511,4.511,0,0,1-3.217,1.06,4.085,4.085,0,0,1-3.321-1.242,3.468,3.468,0,0,1-.732-1.465Z" transform="translate(3.768 3.793)" fill="#777"/>
      <path id="Path_100585" data-name="Path 100585" d="M47.759,27.9a1.692,1.692,0,0,0,.615,1.071,2.47,2.47,0,0,0,1.582.511c1.3,0,2.118-.667,2.118-1.7a1.526,1.526,0,0,0-.732-1.373,3.4,3.4,0,0,0-1.5-.314,11.166,11.166,0,0,0-1.4.065V24.537a8.946,8.946,0,0,0,1.268.067c1.308,0,2.079-.6,2.079-1.61,0-.9-.615-1.412-1.726-1.412a2.187,2.187,0,0,0-1.425.4,1.93,1.93,0,0,0-.549,1.008l-1.87-.314a3.249,3.249,0,0,1,1.242-1.87,4.246,4.246,0,0,1,2.563-.719c2.184,0,3.6,1.1,3.6,2.8a2.382,2.382,0,0,1-.9,1.922,3.2,3.2,0,0,1-1.267.51,2.759,2.759,0,0,1,1.87.876A2.515,2.515,0,0,1,53.945,28a2.76,2.76,0,0,1-.786,1.908,4.511,4.511,0,0,1-3.217,1.06,4.085,4.085,0,0,1-3.321-1.242,3.468,3.468,0,0,1-.732-1.465Z" transform="translate(8.662 3.793)" fill="#777"/>
      <path id="Path_100586" data-name="Path 100586" d="M59.867,22.87a1.646,1.646,0,0,0-1.753-1.321,2.173,2.173,0,0,0-2.053,1.359,5.762,5.762,0,0,0-.536,2.316,3.034,3.034,0,0,1,2.8-1.308,3.4,3.4,0,0,1,3.035,1.556,3.759,3.759,0,0,1,.471,1.961,3.524,3.524,0,0,1-3.793,3.532,4.113,4.113,0,0,1-2.655-.864,5.73,5.73,0,0,1-1.517-4.381,7.127,7.127,0,0,1,1.072-4.042,3.713,3.713,0,0,1,3.191-1.555,3.605,3.605,0,0,1,2.682.994,3.736,3.736,0,0,1,.823,1.334Zm-4.081,4.564a2.214,2.214,0,0,0,4,1.152,2.232,2.232,0,0,0,.3-1.191,1.889,1.889,0,0,0-2.067-2.053,2.11,2.11,0,0,0-2.236,2.092" transform="translate(10.168 3.799)" fill="#777"/>
      <path id="Path_100587" data-name="Path 100587" d="M63.859,24.056c-.328,0-.628.015-.919.043v-.842a8.194,8.194,0,0,0,.912.043h4.584a8.5,8.5,0,0,0,.913-.043V24.1c-.278-.027-.585-.043-.906-.043H65.77a10.636,10.636,0,0,1-.064,1.106h2.046a7.115,7.115,0,0,0,.913-.037,7.1,7.1,0,0,0-.043.806,11.084,11.084,0,0,1-.371,2.823c-.178.442-.492.6-1.2.6-.235,0-.385-.007-1.013-.057a2.751,2.751,0,0,0-.193-.812,6.316,6.316,0,0,0,1.12.141c.349,0,.478-.057.556-.257a9.753,9.753,0,0,0,.291-2.458H65.6a5.658,5.658,0,0,1-.791,2.131,4.716,4.716,0,0,1-1.4,1.446,2.511,2.511,0,0,0-.6-.684,3.808,3.808,0,0,0,1.1-.976,4.923,4.923,0,0,0,.949-2.354,8.341,8.341,0,0,0,.1-1.418Z" transform="translate(11.857 4.39)" fill="#777"/>
      <path id="Path_100588" data-name="Path 100588" d="M87.823,26.338a13.188,13.188,0,0,1,.052-1.427,9.9,9.9,0,0,1-1.046,1.427,8.044,8.044,0,0,0-.6-1.6,9.87,9.87,0,0,0,2.105-3.321,8.819,8.819,0,0,0,.537-1.858l1.5.38A15.824,15.824,0,0,1,89.2,22.924v7.324c0,.588.026,1.02.067,1.517H87.745a11.17,11.17,0,0,0,.078-1.53Zm4.356-1.229v2.64c1.138-.262,1.295-.3,2.315-.6v1.3A32.619,32.619,0,0,1,90.44,29.5c-.25.052-.353.078-.55.131l-.208-1.478a5.684,5.684,0,0,0,1.123-.144V22a8.318,8.318,0,0,0-.051-1.191h.314a15.374,15.374,0,0,0,5.9-1.2l1.071,1.281a17.013,17.013,0,0,1-2.471.667c.013.915.013.928.078,2.158l1.451-.052a5.8,5.8,0,0,0,1.257-.1l.026,1.425c-.366-.025-.511-.025-.915-.025a2.809,2.809,0,0,0-.367.012L95.762,25a7.834,7.834,0,0,0,.575,2.2c.38.877.8,1.453,1.059,1.453.078,0,.158-.078.21-.209a3.975,3.975,0,0,0,.157-1.02c0-.039.013-.276.039-.706a4.93,4.93,0,0,0,1.059.85,6.636,6.636,0,0,1-.445,2.066,1.016,1.016,0,0,1-.928.667c-.667,0-1.557-.85-2.185-2.067a9.441,9.441,0,0,1-.889-3.189Zm-1.8,4.825a6.65,6.65,0,0,0,.994.052h3.818a10.611,10.611,0,0,0,1.335-.065v1.412a8.335,8.335,0,0,0-1.335-.078H91.669a7.2,7.2,0,0,0-1.295.078ZM94.3,23.748c-.039-.366-.052-.785-.1-1.948-.8.118-1.085.144-2.014.209V23.8Z" transform="translate(16.277 3.693)" fill="#777"/>
    </g>
  </g>
</svg>
