<svg xmlns="http://www.w3.org/2000/svg" width="112.187" height="41.749" viewBox="0 0 112.187 41.749">
  <g id="Group_47547" data-name="Group 47547" transform="translate(-2.689 -5.969)">
    <g id="Group_47628" data-name="Group 47628" transform="translate(0 0)">
      <rect id="Rectangle_6862" data-name="Rectangle 6862" width="112" height="5.342" transform="translate(2.876 5.968)" fill="#419eb7"/>
      <rect id="Rectangle_6863" data-name="Rectangle 6863" width="112" height="7.616" transform="translate(2.876 12.5)" fill="#fff"/>
      <path id="Path_100512" data-name="Path 100512" d="M9.646,14.07a3.62,3.62,0,0,0-.551.763A6.82,6.82,0,0,0,8.11,17.7H7.273a7.886,7.886,0,0,1,.641-2.05,8.75,8.75,0,0,1,.926-1.541H7.2a5.07,5.07,0,0,0-.694.037v-.7a5.675,5.675,0,0,0,.726.037H8.92a5.856,5.856,0,0,0,.726-.026Z" transform="translate(0.38 0.785)" fill="#777"/>
      <path id="Path_100513" data-name="Path 100513" d="M10.436,15.2a1.014,1.014,0,0,1-.259-.7c0-.678.573-1.107,1.479-1.107a1.487,1.487,0,0,1,1.34.577,1.045,1.045,0,0,1,.143.53.984.984,0,0,1-.763.991,1.061,1.061,0,0,1,.943,1.075c0,.789-.594,1.224-1.68,1.224a1.816,1.816,0,0,1-1.34-.424,1.1,1.1,0,0,1-.307-.794,1,1,0,0,1,.434-.869,1.133,1.133,0,0,1,.525-.212,1.025,1.025,0,0,1-.514-.292m2.135,1.315c0-.44-.344-.7-.916-.7s-.923.27-.923.709.34.689.912.689c.593,0,.926-.249.926-.693m-1.684-1.939c0,.386.3.63.778.63s.758-.238.758-.624-.3-.615-.767-.615-.768.238-.768.61" transform="translate(0.584 0.782)" fill="#777"/>
      <rect id="Rectangle_6864" data-name="Rectangle 6864" width="87.428" height="1.308" transform="translate(19.444 15.116)" fill="#e73e8f"/>
      <path id="Path_100514" data-name="Path 100514" d="M52.1,14.986a1.551,1.551,0,1,1-1.551-1.551A1.551,1.551,0,0,1,52.1,14.986" transform="translate(2.862 0.784)" fill="#e2e100"/>
      <rect id="Rectangle_6865" data-name="Rectangle 6865" width="112" height="7.616" transform="translate(2.689 21.711)" fill="#fff"/>
      <path id="Path_100515" data-name="Path 100515" d="M7.069,25.306a.736.736,0,0,0,.159.308.806.806,0,0,0,.652.269.821.821,0,0,0,.868-.873.789.789,0,0,0-.831-.853.933.933,0,0,0-.657.243.6.6,0,0,0-.159.239l-.662-.064c.053-.377.057-.4.069-.551l.121-1.313c.006-.1.017-.275.022-.541.159.011.28.016.561.016h1.3a4.029,4.029,0,0,0,.736-.042v.668a5.076,5.076,0,0,0-.73-.042H7.276l-.085.927q-.008.064-.032.222a1.307,1.307,0,0,1,.906-.324,1.359,1.359,0,0,1,1.033.4,1.3,1.3,0,0,1,.376,1A1.439,1.439,0,0,1,7.88,26.5a1.472,1.472,0,0,1-1.541-1.038Z" transform="translate(0.37 1.293)" fill="#777"/>
      <path id="Path_100516" data-name="Path 100516" d="M13.24,25.457a3.912,3.912,0,0,0-.529-.036h-.192V25.8a3.278,3.278,0,0,0,.043.6H11.81a3.376,3.376,0,0,0,.042-.614v-.365H10.385c-.312,0-.482,0-.662.021V24.79c.18-.2.238-.266.423-.488L11.4,22.766a4.856,4.856,0,0,0,.44-.583h.715a7.232,7.232,0,0,0-.038.9v1.738h.186a3.484,3.484,0,0,0,.534-.037Zm-1.382-1.732a6.009,6.009,0,0,1,.026-.636c-.106.153-.169.239-.36.472l-1.017,1.261h1.351Z" transform="translate(0.568 1.295)" fill="#777"/>
      <rect id="Rectangle_6866" data-name="Rectangle 6866" width="62.215" height="1.308" transform="translate(19.256 24.327)" fill="#e73e8f"/>
      <path id="Path_100517" data-name="Path 100517" d="M73.588,23.69a1.551,1.551,0,1,1-1.551-1.551,1.551,1.551,0,0,1,1.551,1.551" transform="translate(4.117 1.293)" fill="#e2e100"/>
      <rect id="Rectangle_6867" data-name="Rectangle 6867" width="112" height="7.616" transform="translate(2.689 30.632)" fill="#fff"/>
      <path id="Path_100518" data-name="Path 100518" d="M7.084,33.813a.88.88,0,0,0,.163.291.8.8,0,0,0,.61.217.8.8,0,0,0,.6-.217,1.746,1.746,0,0,0,.414-1.261,1.05,1.05,0,0,1-.282.3,1.435,1.435,0,0,1-.858.243A1.322,1.322,0,0,1,6.289,32a1.4,1.4,0,0,1,.672-1.245,1.735,1.735,0,0,1,.926-.233,1.5,1.5,0,0,1,1.456,1.043,3.373,3.373,0,0,1,.155,1.1A2.66,2.66,0,0,1,8.936,34.5a1.465,1.465,0,0,1-1.127.4,1.532,1.532,0,0,1-1.022-.307A1.511,1.511,0,0,1,6.353,34Zm1.663-1.86a.837.837,0,0,0-.89-.853.83.83,0,0,0-.863.869.791.791,0,0,0,.841.848.87.87,0,0,0,.911-.864" transform="translate(0.367 1.782)" fill="#777"/>
      <path id="Path_100519" data-name="Path 100519" d="M10.557,34.833a4.886,4.886,0,0,0-.684.026,2.714,2.714,0,0,1,.138-.678,2.636,2.636,0,0,1,.726-1.038,7.459,7.459,0,0,1,.874-.64c.488-.334.635-.509.635-.779,0-.36-.28-.582-.73-.582a.75.75,0,0,0-.673.312,1.006,1.006,0,0,0-.164.487l-.758-.09A1.6,1.6,0,0,1,10.287,31a1.54,1.54,0,0,1,1.213-.471c.927,0,1.5.445,1.5,1.171a1.075,1.075,0,0,1-.376.848,6.6,6.6,0,0,1-.89.651,4.792,4.792,0,0,0-.631.53,1.271,1.271,0,0,0-.3.477h1.483a5.567,5.567,0,0,0,.774-.042v.7c-.249-.021-.46-.032-.8-.032Z" transform="translate(0.577 1.783)" fill="#777"/>
      <rect id="Rectangle_6868" data-name="Rectangle 6868" width="80.02" height="1.308" transform="translate(19.257 33.249)" fill="#e73e8f"/>
      <path id="Path_100520" data-name="Path 100520" d="M90.611,32.119a1.551,1.551,0,1,1-1.551-1.551,1.551,1.551,0,0,1,1.551,1.551" transform="translate(5.111 1.785)" fill="#e2e100"/>
      <rect id="Rectangle_6869" data-name="Rectangle 6869" width="112" height="7.616" transform="translate(2.689 40.101)" fill="#fff"/>
      <path id="Path_100521" data-name="Path 100521" d="M7.006,42.631a.687.687,0,0,0,.249.434,1,1,0,0,0,.641.206c.524,0,.857-.27.857-.688a.617.617,0,0,0-.3-.557,1.371,1.371,0,0,0-.609-.127,4.546,4.546,0,0,0-.567.026v-.657A3.468,3.468,0,0,0,7.8,41.3c.529,0,.842-.244.842-.652,0-.365-.25-.572-.7-.572a.887.887,0,0,0-.578.164.777.777,0,0,0-.222.407l-.758-.127a1.319,1.319,0,0,1,.5-.758,1.719,1.719,0,0,1,1.038-.291c.885,0,1.456.445,1.456,1.134a.967.967,0,0,1-.365.779,1.306,1.306,0,0,1-.514.206,1.114,1.114,0,0,1,.758.355,1.021,1.021,0,0,1,.254.731,1.125,1.125,0,0,1-.318.774,1.831,1.831,0,0,1-1.3.429,1.658,1.658,0,0,1-1.346-.5,1.415,1.415,0,0,1-.3-.594Z" transform="translate(0.365 2.305)" fill="#777"/>
      <path id="Path_100522" data-name="Path 100522" d="M10.644,42.758a.9.9,0,0,0,.163.291.95.95,0,0,0,1.209,0,1.742,1.742,0,0,0,.413-1.261,1.033,1.033,0,0,1-.28.3,1.44,1.44,0,0,1-.858.243,1.322,1.322,0,0,1-1.44-1.393,1.4,1.4,0,0,1,.672-1.245,1.733,1.733,0,0,1,.927-.233,1.5,1.5,0,0,1,1.457,1.043,3.4,3.4,0,0,1,.153,1.1A2.666,2.666,0,0,1,12.5,43.44a1.467,1.467,0,0,1-1.128.4,1.532,1.532,0,0,1-1.022-.307,1.511,1.511,0,0,1-.434-.588Zm1.663-1.86a.877.877,0,0,0-1.754.016.792.792,0,0,0,.842.848.869.869,0,0,0,.911-.864" transform="translate(0.575 2.305)" fill="#777"/>
      <rect id="Rectangle_6870" data-name="Rectangle 6870" width="87.428" height="1.308" transform="translate(19.257 42.717)" fill="#e73e8f"/>
      <path id="Path_100523" data-name="Path 100523" d="M68.914,41.064a1.551,1.551,0,1,1-1.551-1.551,1.551,1.551,0,0,1,1.551,1.551" transform="translate(3.844 2.307)" fill="#e2e100"/>
    </g>
  </g>
</svg>
