<svg xmlns="http://www.w3.org/2000/svg" xmlns:xlink="http://www.w3.org/1999/xlink" width="36" height="41.513" viewBox="0 0 36 41.513">
  <defs>
    <clipPath id="clip-path">
      <rect id="Rectangle_6937" data-name="Rectangle 6937" width="28.539" height="25.167" fill="none"/>
    </clipPath>
  </defs>
  <g id="icon" transform="translate(-369 834.167) rotate(-90)">
    <rect id="Rectangle_6931" data-name="Rectangle 6931" width="14" height="8" transform="translate(793 385)" fill="#42a7c2"/>
    <rect id="Rectangle_6932" data-name="Rectangle 6932" width="20" height="8" transform="translate(793 397)" fill="#42a7c2"/>
    <path id="Path_100969" data-name="Path 100969" d="M0,0H7.8V8H0Z" transform="translate(792.654 374)" fill="#42a7c2"/>
    <g id="Group_47690" data-name="Group 47690" transform="translate(834.167 369) rotate(90)">
      <g id="Group_47689" data-name="Group 47689" transform="translate(0 0)" clip-path="url(#clip-path)">
        <path id="Path_100972" data-name="Path 100972" d="M28.539,12.83,25.048,8.611,17.922,0,12.433,6.633,7.3,12.83h5.529a10.823,10.823,0,0,1-1,4.811A10.939,10.939,0,0,1,0,23.792a16.658,16.658,0,0,0,21.723-8.256,18.467,18.467,0,0,0,1.022-2.706h5.794Z" transform="translate(0 0)" fill="#2c9dbc"/>
      </g>
    </g>
  </g>
</svg>
